<?xml version="1.0" encoding="utf-8"?>
<!-- Generator: Adobe Illustrator 23.0.1, SVG Export Plug-In . SVG Version: 6.00 Build 0)  -->
<svg version="1.1" id="Layer_1" xmlns="http://www.w3.org/2000/svg" xmlns:xlink="http://www.w3.org/1999/xlink" x="0px" y="0px"
	 width="198.4px" height="198.4px" viewBox="0 0 198.4 198.4" style="enable-background:new 0 0 198.4 198.4;" xml:space="preserve"
	>
<style type="text/css">
	.st0{fill:none;}
	.st1{fill:none;stroke:#CAAD9D;stroke-width:0.5;stroke-miterlimit:10;}
	.st2{fill:url(#New_Pattern_Swatch_1);stroke:#CAAD9D;stroke-width:0.5;stroke-miterlimit:10;}
</style>
<pattern  x="-199.8" y="-321.7" width="187.6" height="187.2" patternUnits="userSpaceOnUse" id="New_Pattern_Swatch_1" viewBox="0 -187.2 187.6 187.2" style="overflow:visible;">
	<g>
		<rect y="-187.2" class="st0" width="187.6" height="187.2"/>
		<g>
			<path class="st1" d="M108-67.6c0.9-7,2.4-9-2-28.8c-4.3-19.9-5.1-37.3-1.6-54.8c3.5-17.5,2.2-27,2.2-35.9"/>
			<path class="st1" d="M107.5-64.6c0,0-1.5,9.2-1.4,19c0.1,9.9-1.9,11.5-1.2,18.1c0.6,5.1,2.4,8.2,1.6,27.4"/>
			<path class="st1" d="M108.9-160.8c1.2-15.8,0-19.8,0-26.4"/>
			<path class="st1" d="M108.2-156.7c0,0-3,15.9-3.2,25.1c-0.2,9.2,0.6,20.7,3.2,34.9c2.6,14.2,3.9,12.5,1.7,29.5
				c-2.2,17.1-1.9,21.3-1.9,26.8c0,5.6-1.2,6.2-0.8,12.3c0.3,6.1,1.8,5.3,1.7,12c0,6.8,0,15.9,0,15.9"/>
			<path class="st1" d="M111.5-187.1c0.6,10.1,1.2,21.3-2.1,39.2s-2.3,31.8,0.5,47.5c2.7,15.8,4.8,15.5,2.3,36.3S110.3-43,110.3-39
				c0,4,3,6.6,3,10.3c-0.1,3.7-2.3,6-2.3,10.1c0,4.1,0.2,12.4,0.5,18.6"/>
			<path class="st1" d="M110.1-24.7c0.8-0.1,1.8-1.6,1.8-3.9c0-2.3-1.3-5.2-2.3-5c-0.9,0.2-1.1,3.3-1,5.4
				C108.6-26,109.3-24.6,110.1-24.7z"/>
			<path class="st1" d="M113.3-187.1c0,0,1.1,16.7,0,31.1c-1.1,14.4-3.8,14.3-3.4,29s1.9,22.1,3.4,30.5c1.5,8.5,3.8,10.6,2.4,22.7
				c-1.4,12-3.7,16.7-3.2,32c0,0-0.1,4.7,1.4,8.2c1.5,3.5,1.6,6.3,0.1,10.8c-1.5,4.5-1.4,10.1-1.3,12.3c0.1,2.1,0.6,10.4,0.6,10.4"
				/>
			<path class="st1" d="M115.7-187.1c0.5,4.8,1,25.3-1.1,38.5c-2.1,13.2-3,17-2.1,27.1c1.3,14.8,3.4,24.7,4.3,28.2
				s2.7,11.6,1.3,19.6s-3.1,17.6-2.9,26.6c0.2,9,0.4,9.8,1,12.7c0.6,2.9,2.1,4.1,1,10.2c-1.1,6.1,0.2,18.7,0.8,24.1"/>
			<path class="st1" d="M114.8-19.6c-0.3,7.3,0.9,19.6,0.9,19.6"/>
			<path class="st1" d="M117.9-187.1c0.3,4.8,1.3,19.1,0.2,29.3c-0.5,5-3.1,19.2-3.5,24.5c-0.3,5.4,0.8,16.7,1.6,22.5
				c0.8,5.8,4.4,20.8,4.6,29.1c0.2,8.3-2.2,11.9-2.9,20.2c-0.8,8.3-0.2,14.4,0,19c0.2,4.6,1.9,8.9,1.9,13.9s-0.5,4.5-0.8,10.4
				c-0.3,5.9,1.1,18.1,1.1,18.1"/>
			<path class="st1" d="M119.1-51.5c0.6,10.9,1.6,11.7,2.2,19.7c0.5,7.7-0.2,8.7-0.6,14.1c-0.3,5.4,1,17.7,1,17.7"/>
			<path class="st1" d="M120.6-67.3c-1.1,12.1,0.7,16.4,2.2,26.3c1.4,9.9,0.8,14.2,0.2,22.2c-0.7,8.1,1,18.8,1,18.8"/>
			<path class="st1" d="M117.6-125c0,0-1.9-9,0-19.4"/>
			<path class="st1" d="M120.1-187.1c0,0,1.5,12.7,0.7,27.2c-0.8,14.5-3.6,21.3,0.7,36c4.3,14.7,3.4,26,2.9,33.1
				c-0.5,7.1-3.2,16.4-1.6,34.2c1.6,17.8,4.2,15.8,2.7,34.2c-0.9,11.2,0.8,22.3,0.8,22.3"/>
			<path class="st1" d="M122.1-88.2c1.1-11.4-0.5-33.9-3.6-33.9c-2.1,0-0.9,7.2,0,12"/>
			<path class="st1" d="M120.3-99.4c0.5-5.9-0.8-15-0.8-15"/>
			<path class="st1" d="M123.9-187.1c0.6,6.3,1.5,17.3,0,29c-1.5,11.7-3.3,23.5,0.1,35c3.3,11.5,4.4,20.5,2.3,38.5s-1.7,22.9-0.6,32
				s3.2,15.1,2.2,32c0,0-1,7.6,0.3,20.6"/>
			<path class="st1" d="M126.3-187.1c0,0,1.5,19.6-0.6,32.5c-2.1,12.9-1.3,23,0.6,29.6c1.8,6.7,3.9,10.6,3.9,22.2
				s-2.8,25.3-2.8,37.3c0,11.9,3,21.1,3.3,31.5c0.3,10.4-0.7,18.7-0.8,24.3c-0.1,5.5,0.3,9.7,0.3,9.7"/>
			<path class="st1" d="M136.9-144.4c-1.5-8.6-4.3-14.7-5.7-22.9c-1.4-8.2-0.6-12.7-0.9-19.8"/>
			<path class="st1" d="M127.7-152.9c0,0,1.5-7.4,1.2-15.9c-0.2-4.6-0.3-14.2-0.6-18.3"/>
			<path class="st1" d="M130.4-159.9c0.3,1.6,2.1,7,2.1,7"/>
			<path class="st1" d="M130.1-151.7c-2.1,0.2-4.3,4.9-3.1,16.4c1.3,11.5,3.9,16,5.1,16.1c1.3,0.1,4.2-13.7,4-19.5
				C135.8-147.3,132.2-151.9,130.1-151.7z"/>
			<path class="st1" d="M131.5-141.5c-0.4,1.3,0.4,9,1.6,9c1.2,0,1.7-15.6-2.4-15.1c-4,0.4,0.4,22,0.4,22"/>
			<path class="st1" d="M129.1-68.1c-0.1-7.3,1.8-15.9,2.3-21.6c0.7-8.5,0.7-18.4,0.7-18.4c0.1-5.8-1.4-9.7-1.4-9.7"/>
			<path class="st1" d="M136.6-124.1c0,0-2.1,8.1-2.2,14.7c-0.1,6.7-0.5,17.5-2.2,27.7c-1.3,8.3-2.4,16.7-0.5,33.7
				c2.5,21.4,1.5,22.9,1.1,30.8c-0.3,7.9,0,17.2,0,17.2"/>
			<path class="st1" d="M138-134.7c0,0,0.6,13.5-0.7,20.3c-1.3,6.7-0.6,16.3-1.8,24.2c-1.3,7.9-2.8,17.3-2.1,32.5
				c0.6,15.2,2.8,21.7,2.3,31.8c-0.5,10.1-0.2,22.6,0,25.9"/>
			<path class="st1" d="M135.7-72.1c0.1-5,1.8-16,1.8-16s3.2-25,2.4-44.8c-0.8-19.8-4.9-23.3-6.5-34.2c-1.4-9.5-0.2-14.2-0.5-20.1"
				/>
			<path class="st1" d="M135.3-67.3c-0.9,13.4,1.6,22.9,2.4,29.7c0.8,6.8,0.5,13.2,0.5,18c0,4.8,0,19.6,0,19.6"/>
			<path class="st1" d="M134.5-178c0,3,0.6,7.5,1.4,11.8c1.8,8.7,4.2,12.6,5.4,27.4c1.2,14.8,0.7,23.9,0,32.6
				c-0.7,8.7-2.5,24-3.1,29.4s-2.2,11.6-1,22.7c1.3,11.1,2.8,12.2,2.8,23.3c0,11.1,0.4,30.8,0.4,30.8"/>
			<path class="st1" d="M142.8-43.2c1.1-0.1,2.8-5.5,3.3-12.9c0.5-7.4-1.6-14.4-4.1-14.3c-1.8,0.1-3.8,2.2-3.3,11.3
				C139.2-50.1,141.6-43.1,142.8-43.2z"/>
			<path class="st1" d="M140.8-61.5c-1.6,4.5,0.4,13,1.6,13.4c0.4,0.1,2.1-0.4,2-9.9c-0.1-9.6-2-10-2-10"/>
			<path class="st1" d="M143-40.6c0,0-1.3,1.6-1.4,7.8"/>
			<path class="st1" d="M141.1-39.9c-0.1-2.4-0.6-3.5-0.6-3.5"/>
			<path class="st1" d="M140-76.8c0,0,4-27.8,4-43s-0.8-25.8-4.3-40.2s-3.9-27.2-3.9-27.2"/>
			<path class="st1" d="M139.7-72.8c0,0,7.4-2.7,8.3,11.1c1,15.6-4,17.8-5,29s-0.8,32.7-0.8,32.7"/>
			<path class="st1" d="M144.3-95.6c0,0-1,8.2-1.5,12.9c-0.5,4.7-1.1,7.1,1.3,8.4c1,0.5,2.1,1.2,2.6,0.5c0.5-0.7,0.2-3.5-0.4-6.1"/>
			<path class="st1" d="M138.1-187.1c0,0,0.4,12,3.4,24.9c3,12.9,4.3,27.5,4.3,35.9s-0.5,23.1,0.4,32.6s4.1,20.6,4.2,33
				s-3.7,21.2-4.7,26.4c-1,5.4-1,22.7-0.6,34.4"/>
			<path class="st1" d="M140.4-187.1c0.1,4.7,2.2,26.2,5.1,26.4c2.8,0.2-0.5-17.1-0.5-26.4"/>
			<path class="st1" d="M142.6-185.2c0,0,1,12.1,2.4,19.2"/>
			<path class="st1" d="M145.6-147.7c0.3-8.3-1.5-11.8-1.5-11.8"/>
			<path class="st1" d="M148.2-187.1c0,0,1.1,14,0.2,24.3s-1.7,14.8-0.9,24.6c0.8,9.8,1.8,10.2,2.5,22.5c0.7,12.2-0.2,14.7,0.9,23.6
				c1.1,8.9,2.4,22.9,2.2,29.7c-0.2,6.8-2.6,17.9-3.7,28c-1.1,10.1,0.1,19.7,0.7,26.3c0.6,6.6,0.5,8.1,0.5,8.1"/>
			<path class="st1" d="M151.4-69.6c0,0-1.9-13.8-2.9-19c-0.9-5.2-1.4-13.2-1.3-18.1c0.1-4.9,0.3-16.9,0-22.4"/>
			<path class="st1" d="M148.8-112.3c0,0-0.1,13.2,0.5,17.8"/>
			<path class="st1" d="M148-36.9c-1.1,5.6-1.4,15.9-0.8,21.8c0.7,5.9,1,15,1,15"/>
			<path class="st1" d="M150.7-187.1c0,0,1.1,16.1-0.4,29.2c-1.5,13-0.1,20.2,1,27.4c1.1,7.2,1.3,16.3,1.1,22.5
				c-0.1,6.2,1,18.7,1.7,26.5c0.7,7.7,2.9,15.2-1,38.4c0,0-2.3,12.1-1.2,26.2c1,14.1,1.3,14,1.2,16.9"/>
			<path class="st1" d="M142.6-59.7c0.3,4.9-0.3,5.2-0.3,5.2"/>
			<path class="st1" d="M153.2-187.1c0,0,1.1,13.9,0,26.4s-2.1,11.8-0.1,26c2,14.2,1.5,20.5,1.6,28c0.1,7.5,3.7,28.8,3.5,43.2
				c-0.1,14.4-1.9,16.7-3.1,26.2c-1.2,9.4-1.4,13.2-1.1,20c0.3,6.8,1.7,12.3,1.5,17.4"/>
			<path class="st1" d="M154.5-142.6c-0.8-11.3,0.9-8.5,2.2-16.4c1.3-7.9,1-28.1,1-28.1"/>
			<path class="st1" d="M154.7-157.7c1.6-11.4,0.8-29.4,0.8-29.4"/>
			<path class="st1" d="M157.2-152.4c-1.2,0.3-1.5,1.8-1.2,7.1c0.3,5.3,1.5,8.1,2.2,8.1c0.7-0.1,2.2-0.6,1.9-6.9
				C160-150.4,158.7-152.7,157.2-152.4z"/>
			<path class="st1" d="M157.5-144.4c0,0,0.2,6.2,1.1,4.8c0.9-1.4-0.6-9.5-0.6-9.5"/>
			<path class="st1" d="M158.7-135.1c-0.6,3.2-1,5.8-2.3,5.4s-1.7-10.8-1.7-10.8"/>
			<path class="st1" d="M158.1-100.5c0,0-2-12.8-0.9-21.6c1.1-8.8,4.9-10.6,5-20.5c0.1-9.9-3-12.1-2.7-21.8s0.9-22.7,0.9-22.7"/>
			<path class="st1" d="M156.7-32.9c1.7-7.5,4.5-22.9,4.1-35.5c-0.3-12.6-2.3-28.9-2.3-28.9"/>
			<path class="st1" d="M157.7-0.1c0,0,0.1-2.4-0.6-7.8s-1.2-6-1.4-9.4"/>
			<path class="st1" d="M160.4-0.1c0,0,0.5-4.7-1.3-10.7"/>
			<path class="st1" d="M163.2-187.1c0,0-0.9,14.2-0.9,18.8c0,4.8,0.3,8.3,1.1,13.1c0.9,4.7,1.8,6.5,1.8,13.7
				c0,7.1-1.9,11.9-4.1,18.3c-2.1,6.4-1.4,14.9-0.8,21.5s1.7,16,2.3,26.5c0.6,10.4,0.2,22.6-0.5,29.3c-0.7,6.7-3.4,13.3-4.5,16
				s-1.8,5.3-0.7,10.7c1.1,5.4,3.8,6,5.2,11.2c1.4,5.2,1,8,1,8"/>
			<path class="st1" d="M165.6-187.1c0,6-1.1,10.3,0.1,24c1.5,16.8,2.9,16,1.6,28.4c-1.3,12.4-4.7,12.5-5,22.4
				c-0.3,9.9,2.2,19,2.8,29.4s0.6,27.4,1.4,36.8c0.8,9.4,2.6,15.1,3.8,18.6c1.2,3.5,2.9,5,1.8,11c-1.1,5.9-2.1,9.4-1.9,16.5"/>
			<path class="st1" d="M164-46.2c0.1,11.2,4.3,19,5.5,24s-0.7,7.4-1.5,11.5c-0.8,4.1,0,10.7,0,10.7"/>
			<path class="st1" d="M162.5-37.8c0,0-0.7,3.3-1.9,6.1c-1.2,2.8-0.7,3.5,0,3.8c2.5,1.2,4.1,2.9,5.2,2.4c1.1-0.5-2.1-3.9-2.6-7.2"
				/>
			<path class="st1" d="M164.3-11.1c1.5,1.2,3.9-4.5,3-8.2c-0.9-3.7-7.9-7.4-8.6-6.1C158.1-24,159.1-15.3,164.3-11.1z"/>
			<path class="st1" d="M163.6-21c1.1,0.4,3,6,1.2,6.7c-1.8,0.7-4.2-8.7-4.2-8.7"/>
			<path class="st1" d="M165.6-0.1c0,0,0-6.1-0.9-8.8"/>
			<path class="st1" d="M169.8-140.5c0.2-8-1-18-1.5-26.8c-0.5-8.7-0.1-16.3-0.4-19.8"/>
			<path class="st1" d="M167.3-121.1c-1.2,0.3-3.4,3.9-3.2,9.4c0.1,4.4,2.4,8.9,4.1,8.9c1.8,0,3.7-8.6,3.7-13.4
				S168.5-121.4,167.3-121.1z"/>
			<path class="st1" d="M169-109.4c0.5-1.9,1.9-11.7-1-9.3c-2.9,2.4-2.1,10.1,0,12.7"/>
			<path class="st1" d="M167.6-112.5c0,0-0.2-2.8,0.7-3.4"/>
			<path class="st1" d="M166.6-122.7c0,0,0-1.7,0.7-3"/>
			<path class="st1" d="M175.2-4.7c0.5-2.9,1.1-10.7-0.8-10.1c-1.8,0.6-2.1,11.4-1.3,14.7"/>
			<path class="st1" d="M165.2-101.8c0,0,2.4,15.5,2.7,24.2s0.5,24.5,1.3,31.7c1.1,10.1,3.8,19.9,3.8,19.9"/>
			<path class="st1" d="M171.9-41.6c-0.5-7.9-1.4-24.4-1.7-32.4s-2.6-20,0.2-27.3c2.7-7.4,3.5-13.1,3.3-16.9c-0.2-3.8-3-3.7-4.2-6.2
				c-1.3-2.4,0.4-10.4,0.4-14"/>
			<path class="st1" d="M173.7-34.5c0,0,0.3-12,0-19.3c-0.3-7.3-1.4-17.1-1.4-17.1"/>
			<path class="st1" d="M176.3-44.3c0,2.3-0.7,9.5-1,12c-0.3,2.5-0.6,6,1,13s1.4,12.7,0.8,19.2"/>
			<path class="st1" d="M176.3-47.7c0,0,0-7.9-1.3-17.3c-0.7-5.6-1.7-8-2-15.5c-0.3-7.5,4-19.6,4.8-25.4c0.8-5.8,1-14.3,0.5-20.7
				c-0.5-6.4-1.1-20.3-1.4-26.2c-0.3-5.9-1.1-24.4,0.2-34.2"/>
			<path class="st1" d="M170.7-128.6c-0.4,2.9,1,5.7,2.4,4.9c1.4-0.9,0.1-10.4-0.7-17.7c-0.8-7.3-1-17.6-1.5-25.1
				c-0.5-7.5-0.1-13.4-0.8-20.5"/>
			<path class="st1" d="M171.4-86c0,0-0.1-5.2,1-10.8c1.1-5.6,3.5-10.7,3.8-19.2c0.3-8.5-0.6-18.5-1.1-23.5
				c-0.5-4.9-1-20.7-1.3-27.9"/>
			<path class="st1" d="M173.2-187.1c0.6,5,0.6,17.4,0.6,17.4"/>
			<path class="st1" d="M179.3-101.8c-0.7,4.7-2.8,10.1-3.4,13.6c-1.1,6.7-0.7,11.6,0.3,16.2c1,4.6,1.7,10.3,1.9,14.9
				s0.6,10.5,0.5,15.2c-0.1,4.7-0.4,7.9-1.1,11.9c-0.7,3.9,0.3,6.1,1.2,8.5c0.9,2.4,0.9,5.6,1.1,11.4c0.2,5.8,0,10,0,10"/>
			<path class="st1" d="M179.8-187.1c-0.7,7.9-0.7,19.9-0.7,24.3s0.4,19.4,0.7,23.7c0.3,4.3,1.1,16.4,1.5,22
				c0.4,5.6-0.1,11.8-0.5,16.6c-0.5,4.8-3.1,11.1-3.5,15.4c-0.5,4.3,1.5,11.1,2,15.5c0.5,4.5,0.9,15.4,1.1,20.9s0.7,12.3,1.6,16.4
				c0.9,4.1,0.2,7.2,0,9.2c-0.3,2-0.5,4.7,0,11.9c0.5,7.2,0.3,11.1,0.3,11.1"/>
			<path class="st1" d="M181-73.8c1.3,5.4,0.7,12.9,1.1,21.5s2.9,16.5,3.1,21.9c0.2,5.4-0.6,8.4-1.1,13.2c-0.5,4.7,0.8,15,0.8,17.2"
				/>
			<path class="st1" d="M179.8-84.5c-0.4,4,0.2,5,0.6,5.6c1.3,1.9,1.4,4.5,3.1,4.3c1.5-0.1,3.2-3.2,3.4-9.7c0.2-6.6-1.8-9.2-3.4-9.2
				S180.2-88.5,179.8-84.5z"/>
			<path class="st1" d="M183.6-78c2-3.5,1.6-12.2,0-12.2c-1.6-0.1-2.3,9.8-1.2,10.1c1.1,0.3,0.9-4.6,0.9-4.6"/>
			<path class="st1" d="M183.1-101.8c-0.1,4-1.3,6.6-1.3,6.6"/>
			<path class="st1" d="M187.3-76.5c-1.3,3.9-2.7,7.3-2.8,12.5c-0.2,8.2,0.8,15.7,1.5,19.6c0.3,1.7,0.8,3.7,1.3,6.1"/>
			<path class="st1" d="M187.3-15.4c-0.2,4.2-0.3,8.8,0,15.3"/>
			<path class="st1" d="M187.3-94.7c-0.7-1.7-1.6-3.5-2.3-6.2c-1.9-7.2-2.5-38.5-2.6-45.8c-0.1-7.3-0.6-28.3-0.2-40.5"/>
			<path class="st1" d="M187.3-68.4c0,0-0.6,6.3,0,14.3"/>
			<path class="st1" d="M187.3-102.8c-0.4-1.8-0.7-4.1-1-6.9c-1.3-15.8-1.2-67.4-1.6-77.4"/>
			<path class="st1" d="M179.9-24c0.9-0.1,1.1-2.1,1.1-3.7c0-1.5-0.2-4-1.1-4.1c-0.8,0-1.1,3.1-1.1,4.5C178.9-25.7,179-24,179.9-24z
				"/>
			<path class="st1" d="M180.3-32.8c-0.3-0.9-0.5-3.8-0.5-3.8"/>
			<path class="st1" d="M122.7-165.5c0.3-6.2-0.1-13.7-1-21.6"/>
			<path class="st1" d="M100.3-131.1c-0.2,1.6-0.2,5.2-0.2,5.2c0.3,5.7,1,12.2,1.4,15.7c0.4,3.6,1.6,10.6,3.1,16.7
				c1.4,6.1,2.8,14,2.5,17.5c-0.3,3.6-1.8,11.3-2.2,16.1c-0.3,4.8-0.6,10.9-0.5,14.2c0.2,5-1.4,10.3-1.4,16.1c0.1,4,1,9.7,1.4,13.4
				c0.4,3.7-0.2,11.7-0.2,16.3"/>
			<path class="st1" d="M104.3-163.9c0.4-6,0-23.2,0-23.2"/>
			<path class="st1" d="M102.6-152.4c0,0,1.1-4.5,0.4-8.3c-0.7-3.8-0.8-26.4-0.8-26.4"/>
			<path class="st1" d="M102.2-0.1c0.1-5,0.5-11.2,0.5-11.2c0-1.9-0.1-5.9-0.9-11.7c-0.8-5.8-0.8-11.4,0-16.6
				c0.8-5.2,0.6-11.1,0.9-15.8c0.3-4.7,1.5-12.6,2.1-15.7c0.6-3.1,0.4-7.9-0.6-14.4s-2-13.2-2.9-13.2c-1,0-1.1,3.5,0,7.3"/>
			<path class="st1" d="M101.7-89c0.7,2.7,1.8,10.2,1.6,15c-0.3,4.8-2.2,14.6-2.5,19.3c-0.2,3.4-0.1,8.3,0,11.6"/>
			<path class="st1" d="M100.7-100.2c0,0,0.3-2.2,0.2-4.9"/>
			<path class="st1" d="M99.8-0.1c0.1-3.2,1-14.4,0.3-20.8"/>
			<path class="st1" d="M101.1-165c-0.7-8.1-1.3-13.5-1.3-22.1"/>
			<path class="st1" d="M174.2-16.8c0,0,0.1-3.7-0.4-6.4"/>
			<path class="st1" d="M144.4-76.8c0,0-0.4-4.3,0.5-6.1"/>
		</g>
		<g>
			<path class="st1" d="M0.2-76.5C1-78.7,1.6-81,1.9-84.1c0.6-5.3-0.4-7.7-1.7-10.6"/>
			<path class="st1" d="M0.2-38.3c0.6,3.1,1.1,6.9,0.8,11.8C0.8-22.3,0.5-19,0.2-15.4"/>
			<path class="st1" d="M0.2-54.1c0.2,2.7,0.6,5.7,1.2,8.6c2.1,10.3,2.9,16.9,1.8,24.8c-1,7.9-0.6,20.6-0.6,20.6"/>
			<path class="st1" d="M0.2-102.8C2-94.7,4.9-95.2,4.7-86C4.5-78.8,1.9-78,3.1-65.1c1.1,13,3.9,24.2,3.7,36.6
				C6.5-16.1,5.2-8.3,5.7-0.1"/>
			<path class="st1" d="M0.2-187.1c0,0,0.8,18.6,0.9,35.9c0.1,17.4,0.5,41.9,2.3,49.4c1.8,7.5,3.9,8.5,3.8,16.7
				c-0.1,8.2-2.9,6.7-1.8,19.3c1,12.6,2.7,14.3,3.7,32.9C9.9-14.3,8.1-16.8,9-0.1"/>
			<path class="st1" d="M3.1-163.9c0.7-8.2-0.1-16.3-0.4-23.2"/>
			<path class="st1" d="M9-187.1c0.3,3.3,0.1,14.9-0.3,19c-0.4,4.1-2,6.2-2,10.7c0,4.5,1.9,5.9,2.5,9.9c0.6,4.1,0.3,9.3,0,20.9
				c-0.3,11.6,2,39.5,1.6,49.8C10.4-66.5,8.2-66,8.2-59.4c0,6.6,3.3,20.1,3.5,31.2c0.2,11.1-0.5,20.3,0,28.1"/>
			<path class="st1" d="M8.9-74.6c0.1,2-0.3,7.9-1.7,7.9c-1,0-0.5-6.6,0.3-9.8c0.8-3.2,1.3-4.6,1.4-9.7C9-91.3,8.3-103.3,8-108
				c-0.2-4.7-1.2-14.1-0.8-23.8c0.3-9.7,0.2-12.1-0.5-15.4s-2.4-5.3-2.4-9.5c0-6.6,1.5-9.3,1.9-13c0.7-6.7-0.5-13-0.6-17.4"/>
			<path class="st1" d="M6.2-101.1c0,0-1.1-11.3-1.5-18c-0.5-6.7-0.5-9.9-0.5-14.3c-0.1-4.4,0.5-10.5-0.6-17"/>
			<path class="st1" d="M19.9-56.6c0-4.7-1.1-9.8-3.4-9.4c-1.8,0.3-2.9,4.2-2.6,9.5c0.3,5.3,2.2,9.1,3.9,8.8
				C19.7-48.1,20-51.9,19.9-56.6z"/>
			<path class="st1" d="M16.4-55.4c-0.6-2.2-1.1-7.6,0.3-7.8c1.4-0.1,1.9,8.5,0.7,12.6"/>
			<path class="st1" d="M14.2-0.1c0,0,0-5.2,0-12.3s-0.1-23.2-2.5-32.2"/>
			<path class="st1" d="M11.7-187.1c0.2,3.8-0.1,14.7-0.3,19.4c-0.2,3.7-2.1,5.5-2.1,9.8c-0.1,6,2.7,6.2,3.1,9.1
				c0.4,2.9-0.3,24.8-0.1,34.6c0.2,9.8,1,22.2,0.9,31.4c-0.1,9.2-0.4,13-1.4,15.9c-1,2.9-3.4,8.8,1.1,20.1
				c3.9,9.7,3.2,19.3,3.2,27.9c0.1,8.6,0.3,18.8,0.3,18.8"/>
			<path class="st1" d="M13.5-163.2c-1.7,0.1-2.3,2.5-2.4,5.3c-0.1,2.8,1,5.9,2.4,5.8s2.5-2.5,2.5-5.2C16-160,15.6-163.3,13.5-163.2
				z"/>
			<path class="st1" d="M13.1-160.8c-0.5,1.1-0.9,6.7,0.4,6.7c1.3,0,0.8-4.5,0.8-4.5"/>
			<path class="st1" d="M14.2-187.1c0,6.5-0.9,18,0.3,20.6c1.6,3.4,3.2,4.4,3.2,8.9c0,4.5-3.2,7.3-3.2,10.7c0,3.3-0.2,20.5-0.2,27.5
				s0.6,26.2,0.9,30.7c0.2,4.5,0.5,12.1-0.2,16.8c-0.7,4.7-3.2,8.4-2.7,14.9c0.6,8.3,3.9,11.4,4.7,14.9c0.8,3.5,1.2,12.3,1.2,16.4
				c0.1,4,0.4,25.8,0.4,25.8"/>
			<path class="st1" d="M16.4-187.1c0.3,6.4-0.8,13.9,0.3,18.7c0.9,3.5,3,5,3,10.4c0,5.5-2.7,8.5-2.9,13.7
				c-0.1,4.2-0.1,23.3-0.1,31.4s1.1,40.4,2.2,43.3c1.1,2.9,2.7,4.8,3,12.3c0.2,7.5-2.1,11-2.1,14.5c0,3.4,0,9.3,0.4,17.2
				c0.4,7.8,0.7,20.1,0.6,25.6"/>
			<path class="st1" d="M19.1-142c0.3-6.7,2.7-10.3,2.9-16.2c0.2-5.9-1.1-6.5-2.5-11.6c-1.4-5.2-0.8-9.4-1-17.4"/>
			<path class="st1" d="M19.2-138.4c0,0-0.2,14.9,0,21.7c0.2,6.8,0.2,24.3,0.6,30.4c0.3,6.1,0.7,11.6,1.8,15.9
				c1.1,4.3,2.4,6.5,2.5,13.4c0.1,6.9-1.7,11.3-1.8,16.4s-0.1,9.9,0.3,17.1c0.4,7.1,1,17.4,1,23.4"/>
			<path class="st1" d="M22-90.6c0,0-0.2-17.5-0.4-23.6c-0.1-6.1-0.4-12.5-0.4-20c0-7.4,1.6-14.6,2.5-19.3c0.9-4.7,1.1-9.7-1.1-14.7
				c-2.2-5.1-1.9-16.5-1.8-18.9"/>
			<path class="st1" d="M22-87.3c0.1,3-0.1,8.4,1.5,14.8s2.2,5.9,2.7,15.2C26.6-48,25-47,24.7-40.7c-0.3,6.4,0,11.8,0.4,18.9
				c0.4,7.1,1,13.1,1.1,21.7"/>
			<path class="st1" d="M23.3-132.7c0-5.9,0.9-12.8,2.3-17.7c1.6-5.8,1.4-13.3,0-19c-1.4-5.7-1.8-13.2-1.8-17.7"/>
			<path class="st1" d="M23.7-109.4c0.1,3.5,0.5,28.4,2.1,36.3c0,0,0.6,3.2,1.6,6.8c0.9,3.3,2.6,7.3,2.7,15.5
				c0.2,8.2-0.1,14.5,0,21.1c0.1,6.7,0.5,20.6,0.6,29.6"/>
			<path class="st1" d="M27.9-56.2c0.6,6.5-0.4,9.5-1,14.6C26.4-36.4,27-27.7,27.4-21c0.4,6.7,1,14.5,1.1,20.9"/>
			<path class="st1" d="M25.7-139.6c0,0,0.7-4.5,1.1-6c0.4-1.4,1.9-7.7,1.9-13.5c0.1-5.8-0.5-9.9-1.4-14.7
				c-0.9-4.7-1.1-8.6-1.1-13.4"/>
			<path class="st1" d="M26.9-81.4c0.2-10.1-1.1-17.7-1.1-17.7"/>
			<path class="st1" d="M28.5-40.7c0,0-0.2,10.7,0,15.4"/>
			<path class="st1" d="M28.5-187.1c0.1,3.1,0.5,11.3,1.2,17.1c0.8,5.9,1,10.7,0.7,16.9c-0.3,6.2-2.4,12.7-4.3,17.7
				c-2,5-2.8,10.9-2.4,15.2c0.4,4.4,3.1,15.7,4.1,19.9c1,4.2,2.1,13.6,1.2,18.6c-0.9,5-1.8,7.9-0.8,11.5c0.9,3.6,4,10.2,4.1,14.9
				c0.2,4.7,0,16.1,0,20.6S33-3.9,32.9-0.1"/>
			<path class="st1" d="M30.7-187.1c0.1,4.2,0.7,12.5,1.3,18.6c0.6,6.2,1.3,12.5,0.4,19.6c-0.9,7.1-4.4,14.5-5.5,19.3
				c-1.1,4.8-1.3,10.8,0.7,19.3c2,8.4,3.6,15.3,3.8,21.4c0.2,6.1-2.1,12.8-2,15.9c0.1,3.1,4.3,10.2,4.9,14.6
				c0.6,4.4,0.5,7.9,0.5,7.9"/>
			<path class="st1" d="M34.9-48c0,0,0.1,16.9,0,24c-0.1,7.1,0.5,20.5,0.5,24"/>
			<path class="st1" d="M35.4-187.1c-0.2,2.4-2.1,3.9-1.8,10.6c0.2,5.4,1.4,9.8,1.6,19c0.2,9.3-2.6,17.6-4.2,21.6
				c-1.6,3.9-3.1,8.9-2.8,15.5c0.2,6.7,2.4,13.5,3.8,19.3c1.4,5.8,2,12.3,1.3,18c-0.7,5.7-2.2,9.2-1.6,11.7c0.6,2.5,4.9,8.7,5,12.7
				c0.1,4,0.5,11.3,0.6,18.1c0.1,6.8,0.1,11.7,0,17c-0.1,5.2,0.3,17.6,0.5,23.6"/>
			<path class="st1" d="M40-0.1c-0.1-6.3-0.5-14.3-0.6-23.9c-0.2-9.6,0-32.7-1-37.1"/>
			<path class="st1" d="M34.9-135.2c-3.8,0.4-5.4,13.5-4.4,19.4c1,5.9,1.5,4.9,3.4,5.9c1.8,0.9,2.2,7.5,4.3,7.4
				c2.1-0.1,3-8.4,3.2-17.4C41.5-127.3,38.7-135.6,34.9-135.2z"/>
			<path class="st1" d="M34.9-128.3c-1.1,10.2,1.3,20.5,3.3,20.5c1.7,0,0.7-25.1-2.7-24.9c-3.1,0.2-4.1,14.7-2.1,19.8"/>
			<path class="st1" d="M37.1-114c0-5.2-0.8-9.6-0.8-9.6"/>
			<path class="st1" d="M36.4-149.4c0,5.9-2.6,9.5-1.8,11.1c0.9,1.5,2.7,2.2,3.3,1.5c0.6-0.7-1.3-4.6-1.3-4.6"/>
			<path class="st1" d="M37.8-187.1c-0.2,3.2-2.6,5.6-2.2,10.6c0.4,4.4,2,9.9,2.2,15.2c0.2,5.4-0.4,11.7,1.5,20.8
				c1.9,9.1,4.4,12.5,4.2,23.7C43.2-105.6,42-104,40.6-100c-1.4,4-2,7.4-1.1,13.4c0.9,5.9,4.8,12.2,5.3,17.9
				c0.5,5.7-2.1,10.4-1.9,13.7c0.2,3.3,0.4,14.2,0.5,21.8c0.2,7.7,0.3,26.4,0.6,33.1"/>
			<path class="st1" d="M33-107.8c2.6,8.5,2.9,14.3,4.4,23.3c1.5,9,5.1,9.1,5.5,16.1c0.4,7-1.3,6.5-2,10.7
				c-0.7,4.2,0.2,13.1,0.5,23.5c0.2,10.4,0.5,27.4,0.8,34.1"/>
			<path class="st1" d="M38.3-100.7c-0.7,2.3-0.8,5.1-0.8,5.1"/>
			<path class="st1" d="M40-62.8c1.1-0.4,1.3-1.6,0.8-6.4c-0.5-4.8-3.8-6.2-5.7-5c-1,0.6-1.6,1.8-0.7,4.7
				C35.3-66.7,38.9-62.3,40-62.8z"/>
			<path class="st1" d="M39.2-67.9c0.2-1-1.1-6.3-3-4.8c-2.2,1.7,2.1,6.5,3.4,7.9"/>
			<path class="st1" d="M35.5-83.8c-0.1,1.8-1.6,5.8-1,6.6c0.6,0.8,2.8,0.8,3.2,0.3c0.5-0.5-0.9-1.5-1.2-3"/>
			<path class="st1" d="M45.8-116.7c0-4.2-0.5-10.8-1.7-16c-1.1-5.1-3.1-10.1-3.6-15.1c-0.5-5,0-11.1-0.4-15.1
				c-0.4-4-2.4-9-2.8-13.2c-0.4-4.2,2.4-7.6,2.6-11"/>
			<path class="st1" d="M45.8-113.5c0,2-0.7,8.5-1.8,12s-2.7,5-2.5,9.9c0.3,4.8,2.7,12.6,3.9,15.8s2.3,7,2.1,10.6
				c-0.3,3.6-2.1,7.7-2.3,12c-0.3,4.3,0.3,16.2,0.3,16.2"/>
			<path class="st1" d="M39.8-180.8c1.5-0.8,3.7,0.8,3.7,0.8c-1-1.5-1.2-4.6-1.4-7.2"/>
			<path class="st1" d="M41.2-179.3c-1.8,0-2.6,1.3-2.4,3.3c0.2,2,1.4,3.6,2.8,3.3c1.4-0.3,2-0.7,2.4-2.7
				C44.3-177.3,42.7-179.3,41.2-179.3z"/>
			<path class="st1" d="M40.1-176.5c0,1.3,0.1,2.8,1.5,2.5c1.4-0.2,1.3-3.2,0-3.9"/>
			<path class="st1" d="M42-169.7c0.5-1.4-1.7-1.4-1.8-0.8c-0.1,0.6,1,2,1.2,3.9"/>
			<path class="st1" d="M46.9-42.2c-0.3-4.8-0.3-12.5,1.4-18.3c1.7-5.8,1-10.2,0-13.7c-1-3.5-2.8-8.1-3.7-14.5s0.4-7.8,1.8-13.2
				c1.4-5.4,1.9-13.8,1.4-20.5c-0.5-6.6-1.5-11-3-17.2c-1.4-6.2-1.9-9.3-2-12.8c-0.1-3.6-0.1-8.5,0.1-11.8c0.2-3.3,2.2-8,2.9-11.8
				c0.6-3.8-1.3-7.3-1.8-11.2"/>
			<path class="st1" d="M50-59.7c-0.2,4.7-0.9,7-1.5,8.7"/>
			<path class="st1" d="M45.2-166.2c5-13.5,1.7-15.4,1.6-20.1"/>
			<path class="st1" d="M49-182.2c0.1-2.9,0.5-4.9,0.5-4.9"/>
			<path class="st1" d="M48.7-128.7c-0.8-7.8-3.6-16.8-3.9-24.4c-0.2-7.7,1.4-11.7,3.1-17.3c1.7-5.7,3-13.4,3-15.9"/>
			<path class="st1" d="M47.1-83.7c-1-5.2-1.4-11,1.3-18.8c2.7-7.8,2.1-22.3,2.1-22.3c-0.2-10.7-3.7-21.7-3.9-28.4
				c-0.3-6.7,2.1-13.6,3.6-18c1.4-4.4,2-10.7,2.3-15.9"/>
			<path class="st1" d="M46.9-2.1c1.2,0.5,3.3-0.9,3.5-4.7c0.2-3.9-3.7-11.8-4.3-10.4C45.1-15,45.3-2.8,46.9-2.1z"/>
			<path class="st1" d="M48.7-6.9c0-0.9-0.4-5.2-1.4-5.2c-0.7,0-0.2,4.1,0.4,6.5"/>
			<path class="st1" d="M49.5-0.1c0.2-1.1,1.1-1.3,2.4-3.6c1.4-2.3,0.4-7.6-2.4-12.5c-2.6-4.4-3.7-6.8-4.2-9.6"/>
			<path class="st1" d="M52.8-124.4c-0.3-7.7-1.7-10.1-2.8-17.5c-1.1-7.4-1.7-16.1,0.5-23.4c2.1-7.3,4.6-12.8,4.3-20.9"/>
			<path class="st1" d="M52.8-120.8c0,3.7,0.1,9.5-1.7,15.8c-1.8,6.3-2.6,7.6-2.7,14.7c-0.2,7.2,3.1,14.8,3.3,24.2
				c0.2,9.4-0.2,13.2-2.7,19.2"/>
			<path class="st1" d="M57.8-187.1c0,3.6,0,5.7-2.5,13.9c-2.3,7.5-4.6,16.4-4,24c0.5,7.6,3.1,18.2,3.4,23.8
				c0.3,5.7,1,13.4-1.9,22.9c-2.9,9.5-2.3,15-1.4,21.1c0.9,6.2,2.8,11.7,2.7,18.2c-0.1,6.5-0.3,12.1-3,16.7
				c-2.7,4.7-4.6,10.2-4.3,16.7c0.4,8.4,7.8,16.5,7.9,22.5c0,4.6-2,5.1-2.2,7.2"/>
			<path class="st1" d="M55.4-15.7c1.5-0.1,2-4,1.5-13.5c-0.5-9.4-1.2-16.5-3.1-16c-2.8,0.6-5.3,7.7-5.2,14
				C48.7-24.8,53.2-15.6,55.4-15.7z"/>
			<path class="st1" d="M52.8-41.6c-1.8,3.7-2.6,7.5-2.2,11.2c0.5,4.7,2.1,10.1,4,10.1c1.5,0,0.8-6.7,0.7-9.3
				c-0.2-2.6-0.4-8.5-1.5-8.4c-1.1,0.1-1.9,7.2-0.9,11.1"/>
			<path class="st1" d="M52.8-90.6c0.1-2.9,1-7.4,1.9-10.7c0.9-3.3,2.1-10.7,2.3-19.5c0.2-8.7-3.4-27.3-3.5-31.2
				c-0.1-3.9,1.6-10.5,3.5-17.4c1.9-7,3.2-12.9,2.9-17.6"/>
			<path class="st1" d="M52.8-87.3c0.2,3.2,1.9,11.2,2.4,15c0.5,3.9,1.2,7.4,0.8,11.9c-0.4,4.5-0.2,11.9,0.9,15.6
				c1.1,3.7,2,10.8,2.2,17.2c0.2,6.4-0.2,11.5-0.8,14.7s-0.9,8.6-0.5,12.8"/>
			<path class="st1" d="M62.5-187.1c0,4.1-0.7,8.8-2.8,16.6c-1.5,5.8-3.6,12.1-3.6,17.8c0,5.7,2.2,17,2.8,25.9c0.6,8.9-1,20-1,23
				c0,4,1.9,8.3,1.4,15c-0.4,6.7-2,10.2-1.9,14.1c0.1,3.9,1.1,8.2,1.1,13.6s-0.8,9,0.4,14.6c1.4,6.2,3,15.5,2.8,22.5
				c-0.2,7-2.3,16.3-1.8,23.9"/>
			<path class="st1" d="M65.2-187.1c-0.1,7.4-2.6,13.9-4.2,20.4c-1.4,5.6-2.9,12.3-2.5,16.4c0.5,5.2,2.3,17.4,2.4,25.9
				c0.2,8.5,0.3,28.9,0.3,33.8c0,4.9-0.5,24.7-0.8,29.1c-0.2,4.4,0.3,14.7,1.2,19.3c0.8,4.6,2,10.4,2,16C63.8-20.6,63-13,62.6-8.8
				c-0.4,4.2-0.2,8.8-0.2,8.8"/>
			<path class="st1" d="M60.6-150.4c-0.1-3.6,1-7.4,1.7-11.6c0.6-3.5,2.7-11.5,3.3-15.4"/>
			<path class="st1" d="M65.6-117.6c0-7.5-1.4-11.1-2.4-16.7c-0.9-5.7-0.9-10.7-0.7-15.4c0.2-4.7,3-12.7,4.1-21.9
				c1-8.3,1.4-10.9,1.2-15.5"/>
			<path class="st1" d="M65.7-114.3c0,2.4,0.4,12.9-0.5,24c-0.8,11.1-1.3,18.4-1.6,23.9C63.3-60.8,62.1-52.8,63-46
				c0.9,6.9,3.4,11.7,3.3,20.3c-0.1,8.5-1.1,14.7-1.1,20.1c0,5.3,0,5.5,0,5.5"/>
			<path class="st1" d="M62.7-126.5c0.4,7.7,1.6,27.1,0,49.5"/>
			<path class="st1" d="M66-154.1c3.5-12.3,4.1-24.6,4.1-33"/>
			<path class="st1" d="M65-150.4c-0.5,3.2-0.9,8.7,0,14.7c0.9,6.1,2.5,12.5,2.7,20.4c0.2,7.9-0.3,31.7-0.9,37.5
				c-0.6,5.8-1.7,18-2.3,23.1c-0.6,5.1,0.3,12.1,2.7,18.2c2.4,6.1,1.6,14.7,1.2,19.6C67.9-12,67.9-4.4,67.9-0.1"/>
			<path class="st1" d="M69.2-82.8c0.3-5.6,0.4-31.1-0.1-38s-2.2-12.7-2.7-20.5c-0.4-7.8,1.9-12.8,3.7-19.5
				c1.8-6.7,1.7-22.7,1.8-26.3"/>
			<path class="st1" d="M69.1-79.1c-0.2,3.8-0.6,11.5-1.6,17.5c-1,6-1.6,7.8-1.1,13.8c0.5,6,4,13.2,4.3,19.6
				c0.3,6.5-0.5,21.1-0.5,28"/>
			<path class="st1" d="M73.8-187.1c0,5.7-0.3,11.8-0.3,17.6c0,5.9-0.9,12.1-2.8,15.8s-2.5,10.4-1.9,16.3c0.6,5.9,2.4,11.9,2.6,24.5
				c0.2,12.7,0.6,21.2,0.4,29.7c-0.2,8.4-0.9,12.7-1.4,17.4s-3.2,10.5-2.6,16.6c0.6,6.1,4.3,14.4,4.9,21c0.6,6.6-0.8,22.2-0.8,28"/>
			<path class="st1" d="M74-106.1c0.1-2.6-0.2-7.7-0.4-12.4c-0.3-4.7-0.3-8.3,2.4-15.9c2.7-7.6,1.8-13.9,0.4-18
				c-1.4-4.2-0.8-7.9-0.8-14.5c0-6.5,0.4-15.9,0.2-20.3"/>
			<path class="st1" d="M74-103.4c0,2.6,0,14.7,0,19.6c0,4.9-1.4,16-1.5,19c-0.1,2.9,0.4,7.2,1.2,8.6c0.8,1.4,1.9,7.1,0,11
				c-1.9,4-0.3,9.1-0.1,10.7c0.3,1.6,1.4,5.2,1.6,12.3c0.2,7.1-1.3,16.4-1.3,22.1"/>
			<path class="st1" d="M77.8-165c-0.2-7.9,0.5-16,0.4-22.1"/>
			<path class="st1" d="M77.8-161.4c0,1.4-0.1,4.8,1.4,9.9c1.5,5,0.7,11.6-0.9,16.5c-1.7,4.9-2.5,8.7-2.4,13.4
				c0.1,4.6,0.6,14.1,0.3,18.6c-0.2,4.5,0.1,10.5-0.1,16.3C76-81,75.4-73,75.1-68.3c-0.2,4.7-0.4,7.2,0.8,10.5
				c1.1,3.2,1.3,7.9-0.2,13.3c-1.5,5.4-0.1,7.9,0.6,12.4s0.8,8.1,0.6,12.3C76.7-15.5,76-5.1,76-0.1"/>
			<path class="st1" d="M73.9-158.1c0,0-0.2,2.9,0.4,5"/>
			<path class="st1" d="M73.5-151.5c-2,0.3-2.9,3.5-3.1,8.2c-0.2,4.7,1.5,8.6,2.4,8.3c1-0.2,2.7-1.6,2.8-7.8
				C75.7-149,75-151.8,73.5-151.5z"/>
			<path class="st1" d="M73.8-142.3c0.3-1.3,1.2-6.6-0.6-6.3c-1.8,0.3-1.2,8.7,0,10.4"/>
			<path class="st1" d="M72.7-132.6c0,0,0-1.7-1.1-1.2c-1.1,0.5,0.6,5.7,0.6,8.3"/>
			<path class="st1" d="M59.2-69.9c0.1-3.3-0.3-5.9,0-8.5"/>
			<path class="st1" d="M56.9-83.8c1.3-3.3,0.7-14-0.5-14s-1.7,4.4-1.9,7.7c-0.2,3.3-0.1,6.7,1.1,10.5"/>
			<path class="st1" d="M78.2-88.4c0,0,0.3-6.4,0.5-15c0.2-8.7-0.8-18.8-0.4-23.4c0.4-4.6,3.2-8,4-17c0.8-8.9-1.8-10.2-2.5-20
				c-0.8-9.8,0.3-11.7,0.3-23.4"/>
			<path class="st1" d="M78.2-85.2c-0.1,2.9-1.2,15.2-1,19.5c0.2,4.3,2.1,6.9,1.6,15s-1.6,7.8-1.6,10.9c0,3.1,1.9,7.9,2,14.9
				c0.1,6.9-0.8,10.2-1,16.4c-0.2,6.2,0,8.4,0,8.4"/>
			<path class="st1" d="M80.3-86.2c0.2-4.2,0.9-13.3,0.7-21.6c-0.2-8.3-0.6-13.9,0-19.3c0.6-5.4,3.7-12.3,3.7-19.6
				c0-7.3-2.4-11.2-2.7-19.5c-0.4-8.3,1.6-15.2,1.6-20.9"/>
			<path class="st1" d="M81.7-0.1c-0.1-4.1,1.1-14.4,1.1-21.8c0-7.4-0.8-12.5-1.2-17.5c-0.5-5-0.8-9.2-0.5-12.6
				c0.5-5.3-1.7-10-2-13.6"/>
			<path class="st1" d="M79.5-42.7c-0.5,4.4,1.5,13.9,1.5,18.3c0,4.4-0.5,6.9-0.6,11.1c-0.1,4.2-0.4,9.5-0.4,13.3"/>
			<path class="st1" d="M83.9-173.5c-0.1,2.1,0.1,10.3,1.2,14.7"/>
			<path class="st1" d="M81.4-85.2c-0.5,2.5-1.2,9.6,1,17.9c2.1,8.3,5.7,15.9,5.9,24c0.2,8.2-0.2,18.2-0.8,25
				C87-11.5,86.9-3.8,87-0.1"/>
			<path class="st1" d="M79.4-74.1c0.1,3.1,2.3,12.2,3.9,17.5c1.7,5.3,3.1,9.2,2.9,19.1c-0.2,9.9-0.3,17.7-0.6,23.1
				c-0.3,5.4-0.4,11-0.3,14.3"/>
			<path class="st1" d="M82.7-53.5c0.7,2.7,1.2,12.5,1.5,18.2c0.2,5.7,0.3,11,0,16.6S83.6-3.1,83.7-0.1"/>
			<path class="st1" d="M82.6-109.8c0.4,6.9-0.2,12-0.2,12"/>
			<path class="st1" d="M82.5-92.7c1.6-3.5,1.9-6.9,1.8-12.3c-0.1-5.4-1.2-13.7-0.6-21.5s3.3-16.5,3.4-24.3c0.2-7.7-1.1-12-1.5-20.3
				c-0.4-8.2-0.2-12-0.3-16.1"/>
			<path class="st1" d="M88.8-187.1c0,0,0.1,8.7,0.7,15.5c0.6,6.7,1.9,14.5,2.2,20.6c0.3,6.1-1.4,11.2-2.8,18.7
				c-1.4,7.4-1.3,14-0.5,20.3c0.7,6.2,0.5,9.9,0,16c-0.5,6-3.5,5-4.8,13c-1.3,7.9,0.6,15.7,2.7,21.5s3.6,8.7,4.1,18.3
				c0.5,9.5-0.3,12.9-0.6,20.9c-0.3,8-0.9,17.4-0.9,22.5"/>
			<path class="st1" d="M82.6-88c2.7-3.7,3.9-9.9,3.9-16.8c0-6.9-1-13.6-0.8-20.3c0.2-6.7,2.7-15,3.4-21.8
				c0.8-6.8-0.9-14.1-1.4-22.2c-0.5-8.2-0.7-18-0.7-18"/>
			<path class="st1" d="M91-187.1c-0.2,4.2,0,9.1,0.7,15.8c0.7,6.6,2.2,15,2.1,22c-0.1,7-1.7,14.1-3.3,20.6
				c-1.6,6.5-0.1,12.9,0.4,20.5c0.5,7.7-0.5,11.3-0.4,15.5c0.1,4.2,3.4,6.6,3.8,16.9c0.4,10.3-2.8,12.9-3.4,17.1
				c-0.5,4.2,1.6,12.4,1.7,19.5c0.1,7.1-0.6,16.7-1,23.2c-0.3,6.5-0.7,16-0.7,16"/>
			<path class="st1" d="M93-187.1c0,0,0.1,6.7,0.7,14.8c0.6,7.9,2.2,18,2.4,25.1c0.2,7.1-3.7,19.6-3.6,24.5
				c0.1,4.9,0.8,9.4,1.2,13.5c0.4,4.2-0.8,9.6-0.8,14.6s3,8.8,3.7,17.6S94-61.3,93.9-58.9c-0.2,2.4-0.1,8,0.6,16.2
				c0.6,8.2-0.1,13.3-0.4,19.9c-0.3,6.6-0.9,17.5-1,22.8"/>
			<path class="st1" d="M95.1-187.1c0,11,2.5,27.2,3,37.3c0.5,10-2,14.6-2.7,21.5c-0.7,6.9,0.9,14.3,1,18.5c0.1,4.2-1,9.2-1.1,14.3
				c-0.1,5,3.5,11.8,3.7,19.4c0.2,7.6-2.4,14.2-2.8,17.2c-0.5,3.1-0.6,6.9,0,13.1c0.6,6.2,0.5,13.8,0,20.9
				c-0.5,7.1-1.1,20.6-1.2,24.9"/>
			<path class="st1" d="M99.5-137.8c1.6-7.5,0.9-13.3,0-21.4c-0.9-8.2-2.1-15.9-2.4-27.9"/>
			<path class="st1" d="M98.7-134.3c-0.5,2.9-1.5,6.3-1.1,10.7c0.5,4.4,2,12.5,1.5,17.5c-0.5,5.1-1.4,8.9-0.8,12.6
				c0.6,3.7,3.1,9,2.9,18.8c-0.2,9.8-2.7,15.1-2.9,17.3"/>
			<path class="st1" d="M98.4-53.5c0.1,2.9,0.8,11.7,0.4,20.7c-0.4,9-1.7,24.6-1.6,32.7"/>
			<path class="st1" d="M71.6-54.8c-1.3,0-2.6,3.1-2.5,5c0.1,2.1,0.2,4.5,1.6,4.6c1.4,0.1,2.6-3.2,2.7-5.2
				C73.4-52.4,72.9-54.8,71.6-54.8z"/>
			<path class="st1" d="M70.7-46.8c1.3-1.3,1.7-5.7,0.9-5.8c-0.8-0.1-1.3,1.6-1.3,2.9"/>
			<path class="st1" d="M69.9-55.7c0,0,0.8-1.7,1.2-5"/>
			<path class="st1" d="M92.1-74.1c0.3-6-1.1-14.2-3.8-13.8c-2,0.3-3.9,5.4-3.5,12.1c0.4,6.7,2.8,14.5,4.1,14.4
				C90.1-61.5,91.9-68.1,92.1-74.1z"/>
			<path class="st1" d="M88.8-66.3c-2.2-4.9-2.2-17.4-0.3-17.3c1.9,0.1,1.4,9,0.9,12.1"/>
			<path class="st1" d="M32.5-182.7c0,0,0.4-2.7,0.4-4.4"/>
			<path class="st1" d="M81.4-182.2c0,0,0.3-2.9,0.3-4.9"/>
			<path class="st1" d="M2.1-57.9c0,5.7,2.1,13.9,2.7,19.5"/>
			<path class="st1" d="M55.6-1.5c1.7-5.2-0.4-12-0.4-12"/>
		</g>
	</g>
</pattern>
<rect class="st2" width="198.4" height="198.4"/>
</svg>
