<?xml version="1.0" encoding="utf-8"?>
<!-- Generator: Adobe Illustrator 23.0.1, SVG Export Plug-In . SVG Version: 6.00 Build 0)  -->
<svg version="1.1" id="Layer_1" xmlns="http://www.w3.org/2000/svg" xmlns:xlink="http://www.w3.org/1999/xlink" x="0px" y="0px"
	 viewBox="0 0 656 686" style="enable-background:new 0 0 656 686;" xml:space="preserve">
<style type="text/css">
	.st0{clip-path:url(#SVGID_2_);}
	.st1{fill:#333333;}
</style>
<g>
	<g>
		<defs>
			<circle id="SVGID_1_" cx="324.9" cy="341.8" r="231.8"/>
		</defs>
		<clipPath id="SVGID_2_">
			<use xlink:href="#SVGID_1_"  style="overflow:visible;"/>
		</clipPath>
		<g class="st0">
			<g>
				<path class="st1" d="M180.8,656c19.6-0.2,116.6-10,126.6-28.1c-9.4-2.8-47.5-33.9-48.4-43.5c-0.9-9.6,16.2-14.3,31.1-15.1
					c-6.8-3-38.4-33.7-44.1-45.6c-10.9-22.8,13.2-27.4,29.7-27.5c2,0,2.8-2.5,1.2-3.6c-21-14.2-47.5-43.6-51.1-67.7
					c-2.1-13.9,17.1-12.2,30.8-6.9c-15.6-6.2-37.6-56.7-41.5-78.5c-1-5.7,7.1,6.5,26.7,15.6c-6.5-2.8-60.9-95.5-60.9-137.3
					c0,41.8-54.4,134.4-60.9,137.3c19.6-9.1,21.6-10.2,26.7-15.6c5.1-5.4-36.5,91.5-42.1,100.3c9.9-2.8,21.7-6.8,27.3-9.7
					c8.8,7.1-32.1,72.5-50.9,79c10.5,6.9,33,1.5,34.6,14.6c1.2,9.6-16.5,32.7-51.6,46.9c14.9,0.9,35.5,5.1,38.6,13.9
					c4.7,13.2-49.2,42.6-58.6,45.4C53.9,647.9,161.1,655.8,180.8,656z"/>
			</g>
		</g>
		<g class="st0">
			<g>
				<path class="st1" d="M330,682.3c19.6-0.2,116.6-10,126.6-28.1c-9.4-2.8-47.5-33.9-48.4-43.5c-0.9-9.6,16.2-14.3,31.1-15.1
					c-6.8-3-38.4-33.7-44.1-45.6c-10.9-22.8,13.2-27.4,29.7-27.5c2,0,2.8-2.5,1.2-3.6c-21-14.2-47.5-43.6-51.1-67.7
					c-2.1-13.9,17.1-12.2,30.8-6.9c-15.6-6.2-37.6-56.7-41.5-78.5c-1-5.7,7.1,6.5,26.7,15.6c-6.5-2.8-60.9-95.5-60.9-137.3
					c0,41.8-54.4,134.4-60.9,137.3c19.6-9.1,21.6-10.2,26.7-15.6c5.1-5.4-36.5,91.5-42.1,100.3c9.9-2.8,21.7-6.8,27.3-9.7
					c8.8,7.1-32.1,72.5-50.9,79c10.5,6.9,33,1.5,34.6,14.6c1.2,9.6-16.5,32.7-51.6,46.9c14.9,0.9,35.5,5.1,38.6,13.9
					c4.7,13.2-49.2,42.6-58.6,45.4C203.2,674.2,310.4,682.1,330,682.3z"/>
			</g>
		</g>
		<g class="st0">
			<g>
				<path class="st1" d="M461.8,671.1c19.6-0.2,116.6-10,126.6-28.1c-9.4-2.8-47.5-33.9-48.4-43.5c-0.9-9.6,16.2-14.3,31.1-15.1
					c-6.8-3-38.4-33.7-44.1-45.6c-10.9-22.8,13.2-27.4,29.7-27.5c2,0,2.8-2.5,1.2-3.6c-21-14.2-47.5-43.6-51.1-67.7
					c-2.1-13.9,17.1-12.2,30.8-6.9c-15.6-6.2-37.6-56.7-41.5-78.5c-1-5.7,7.1,6.5,26.7,15.6c-6.5-2.8-60.9-95.5-60.9-137.3
					c0,41.8-54.4,134.4-60.9,137.3c19.6-9.1,21.6-10.2,26.7-15.6c5.1-5.4-36.5,91.5-42.1,100.3c9.9-2.8,21.7-6.8,27.3-9.7
					c8.8,7.1-32.1,72.5-50.9,79c10.5,6.9,33,1.5,34.6,14.6c1.2,9.6-16.5,32.7-51.6,46.9c14.9,0.9,35.5,5.1,38.6,13.9
					c4.7,13.2-49.2,42.6-58.6,45.4C334.9,663,442.2,670.9,461.8,671.1z"/>
			</g>
		</g>
	</g>
	<g>
		<g>
			<path class="st1" d="M324.9,584.6C191,584.6,82.1,475.7,82.1,341.8S191,99,324.9,99s242.8,108.9,242.8,242.8
				S458.8,584.6,324.9,584.6z M324.9,121c-121.7,0-220.8,99-220.8,220.8s99,220.8,220.8,220.8s220.8-99,220.8-220.8
				S446.7,121,324.9,121z"/>
		</g>
	</g>
</g>
<g>
	<path class="st1" d="M66.6,256.7c-0.2,0.5-0.8,0.8-1.3,0.6l-44-16.8c-0.4-0.2-0.5-0.8-0.3-1.3l3-7.7c0.2-0.5,0.7-0.8,1.1-0.6
		l35.3,13.5l6.7-17.5c0.2-0.5,0.8-0.8,1.3-0.6l7.8,3c0.5,0.2,0.7,0.8,0.5,1.3L66.6,256.7z"/>
	<path class="st1" d="M90.1,203.1c0.2,0.8,0.2,1.3-0.1,1.8L81.4,221c-0.3,0.6-0.7,1-1.5,1.2l-5.3,1.6c-0.8,0.2-1.4,0.1-2-0.2
		l-31.5-17c-0.5-0.3-1-0.9-1.2-1.5l-1.6-5.3c-0.3-0.9-0.1-1.5,0.2-2l8.6-15.9c0.4-0.7,0.4-0.9,1.5-1.2l5.3-1.7
		c0.5-0.1,1.1-0.2,1.9,0.2l31.5,17c0.4,0.2,1,0.7,1.3,1.5L90.1,203.1z M78.2,203.3c-0.1-0.3-0.2-0.4-0.3-0.4L55.9,191
		c-0.1-0.1-0.3-0.2-0.6-0.1l-1.5,0.5c-0.3,0.1-0.4,0.2-0.4,0.3l-3.2,6c-0.1,0.2-0.1,0.3,0,0.5l0.4,1.6c0.1,0.3,0.3,0.4,0.4,0.5
		l21.9,11.8c0.1,0.1,0.3,0.1,0.5,0l1.3-0.4l3.9-7.1L78.2,203.3z"/>
	<path class="st1" d="M107.8,178.5c-0.3,0.5-1,0.6-1.5,0.4l-24-6.9l18.9,13.8c0.4,0.3,0.5,1,0.2,1.4l-4.9,6.7
		c-0.3,0.5-1,0.5-1.4,0.2l-37.9-27.7c-0.5-0.3-0.5-0.9-0.2-1.4l6-8.3c0.3-0.4,0.8-0.5,1.4-0.3l27.2,8.4l0.8,0.2l-22.3-16.3
		c-0.5-0.3-0.5-1-0.2-1.4l4.9-6.7c0.3-0.5,0.9-0.5,1.4-0.2l37.9,27.7c0.4,0.3,0.5,0.9,0.2,1.4L107.8,178.5z"/>
	<path class="st1" d="M136.2,145.1c0,1.2-0.7,1.8-0.7,1.8L122.9,160c-0.5,0.6-1.2,0.8-1.8,0.8l-5.5,0.1c-1.2,0-1.4-0.3-1.8-0.7
		l-25.8-24.9c-0.6-0.6-0.8-1-0.8-1.8l-0.1-5.5c0-0.6,0-1.1,0.7-1.8l12.6-13.1c0.4-0.4,0.7-0.7,1.8-0.8l5.5-0.1
		c1.1,0,1.4,0.3,1.8,0.7l5.4,5.2c0.4,0.3,0.4,1,0,1.4l-5.7,5.9c-0.4,0.4-1,0.4-1.4,0l-1.3-1.3c-0.2-0.1-0.2-0.2-0.5-0.2l-1.7,0
		c-0.2,0-0.4,0.1-0.5,0.2l-4.7,4.9c-0.1,0.1-0.2,0.2-0.2,0.5l0.1,1.6c0.1,0.3,0.1,0.5,0.3,0.6L117,149c0.2,0.1,0.3,0.2,0.6,0.2
		l1.3,0l5.7-5.9l0-1.4c-0.1-0.2-0.1-0.4-0.2-0.5l-4.4-4.3l-3.2,3.3c-0.4,0.4-1,0.4-1.4,0l-6-5.8c-0.4-0.4-0.4-1,0-1.4l9.6-10
		c0.4-0.4,1-0.5,1.4-0.1l15.2,14.7c0.4,0.4,0.5,0.9,0.5,1.5L136.2,145.1z"/>
	<path class="st1" d="M168.4,119.7c-0.4,0.3-1,0.3-1.3-0.1l-21.3-31.1l-7.3,5c-0.5,0.3-1.1,0.2-1.4-0.2l-4.7-6.8
		c-0.3-0.5-0.2-1.1,0.3-1.5l23.1-15.8c0.5-0.3,1.1-0.2,1.5,0.3l4.7,6.8c0.3,0.5,0.1,1.1-0.3,1.4l-7.3,5l21.3,31.1
		c0.3,0.4,0.1,1-0.3,1.2L168.4,119.7z"/>
	<path class="st1" d="M188.6,106.8c-0.5,0.3-1.1,0.1-1.3-0.4l-22.9-40.9c-0.3-0.5-0.1-1.1,0.4-1.3l7.3-4.1c0.5-0.3,1.1-0.1,1.3,0.4
		l22.9,40.9c0.3,0.5,0.1,1.1-0.4,1.3L188.6,106.8z"/>
	<path class="st1" d="M229.2,87.3c-0.5,0.2-1.1,0-1.3-0.5l-7.2-16.3l2,18.5c0.1,0.5-0.3,1.2-0.8,1.4l-5.2,2.2
		c-0.5,0.2-1.3,0.1-1.6-0.4l-11.8-14.3l6.6,16.5c0.2,0.5,0,1.1-0.5,1.3l-7.7,3.2c-0.5,0.2-1.1,0-1.3-0.5l-16.5-43.9
		c-0.2-0.5-0.1-1,0.3-1.2l8.2-3.5c0.5-0.2,1,0,1.3,0.4L210,72.7l3,5.1l-1.8-5.6l-3.8-27.8c-0.1-0.6,0.1-1,0.6-1.2l8.2-3.5
		c0.5-0.2,0.9,0.2,1.1,0.6l19.9,42.5c0.2,0.5,0,1.1-0.5,1.3L229.2,87.3z"/>
	<path class="st1" d="M266.1,75.6c-0.4,0.6-0.7,1-1.6,1.2L243,82.4c-0.5,0.1-1.1-0.2-1.2-0.7L230,36.3c-0.1-0.5,0.2-1.1,0.7-1.2
		l21.5-5.6c0.6-0.2,1.2-0.2,2,0.3l4.8,2.8c1,0.6,1.1,1,1.2,1.6l3.5,13.4c0.2,0.7,0.1,1.4-0.3,2l-1.9,3.4l3.3,2
		c0.6,0.4,1,0.8,1.1,1.2l3.3,12.8c0.2,0.7,0,1.4-0.3,2L266.1,75.6z M253,48.2c0.1-0.2,0.1-0.3,0.1-0.5l-1.4-5.4
		c-0.1-0.2-0.1-0.3-0.3-0.4l-1.5-0.9c-0.1-0.1-0.3-0.2-0.5-0.1l-7.1,1.9l2.3,8.7l7.7-2L253,48.2z M257.8,66.9
		c0.1-0.2,0.1-0.4,0.1-0.5l-1.4-5.5c0-0.1-0.1-0.3-0.3-0.4l-1.5-0.9c-0.2-0.1-0.3-0.2-0.5-0.1l-7.1,1.9l2.3,8.7l7.7-2L257.8,66.9z"
		/>
	<path class="st1" d="M277.2,74.1c-0.6,0.1-1-0.3-1.1-0.8l-6.2-46.5c-0.1-0.6,0.3-1,0.8-1.1l25.2-3.4c0.5-0.1,1,0.3,1.1,0.8l1.1,8.3
		c0.1,0.6-0.4,1-0.8,1.1l-16,2.1l1.2,8.9l12.3-1.6c0.6-0.1,1,0.3,1.1,0.8L297,51c0.1,0.6-0.3,1-0.8,1.1l-12.3,1.6l1.2,8.9l16-2.1
		c0.5-0.1,1,0.3,1.1,0.8l1.1,8.3c0.1,0.6-0.4,1-0.8,1.1L277.2,74.1z"/>
	<path class="st1" d="M328.8,70.1c-0.6,0-1.1-0.5-1.3-1l-7.1-17l-3.2,0.1l0.3,17.1c0,0.5-0.4,1-1,1l-8.3,0.1c-0.5,0-1-0.5-1-1
		l-0.8-46.9c0-0.6,0.5-1,1-1l22.3-0.4c0.6,0,1.3,0.2,1.8,0.7l4.1,3.9c0.9,0.8,0.7,1.4,0.7,1.9l0.3,17.6c0,0.9-0.1,1.3-0.7,1.8
		l-4.1,4.2l7.4,17.5c0.2,0.5,0,1-0.7,1L328.8,70.1z M326,40.5c0.1-0.1,0.2-0.4,0.2-0.6l-0.1-6.4c0-0.4,0-0.5-0.2-0.7l-1.1-1
		c-0.3-0.3-0.6-0.3-0.9-0.3l-7,0.1L317,42l7.3-0.1c0.1,0,0.3,0,0.5-0.2L326,40.5z"/>
	<path class="st1" d="M389.2,76.8c-0.6,0.4-1,0.6-1.9,0.4l-21.8-4.4c-0.5-0.1-0.9-0.6-0.8-1.2l9.3-46c0.1-0.5,0.6-0.9,1.2-0.8
		l21.8,4.4c0.6,0.1,1.1,0.4,1.6,1.1l3.1,4.6c0.6,1,0.5,1.4,0.4,1.9l-2.7,13.6c-0.1,0.7-0.5,1.2-1.1,1.6l-3.2,2.2l2.1,3.2
		c0.4,0.6,0.5,1.2,0.5,1.5l-2.6,13c-0.2,0.8-0.6,1.3-1.1,1.6L389.2,76.8z M385.6,65.4c0.2-0.2,0.3-0.3,0.3-0.4l1.1-5.6
		c0-0.1,0.1-0.3-0.1-0.5l-0.9-1.4c-0.1-0.2-0.2-0.2-0.4-0.3l-7.2-1.5l-1.8,8.8l7.8,1.6L385.6,65.4z M389.4,46.5
		c0.2-0.1,0.3-0.2,0.3-0.4l1.1-5.5c0-0.2,0.1-0.3-0.1-0.5l-0.9-1.4c-0.1-0.1-0.2-0.2-0.4-0.3l-7.2-1.5l-1.8,8.8l7.8,1.6L389.4,46.5z
		"/>
	<path class="st1" d="M419.2,86.9c-0.5-0.2-0.8-0.8-0.9-1.3l-1-18.4l-3-1l-5.5,16.2c-0.2,0.5-0.7,0.8-1.2,0.6l-7.9-2.7
		c-0.5-0.2-0.8-0.8-0.6-1.2l15.1-44.4c0.2-0.5,0.8-0.8,1.2-0.6l21.1,7.2c0.6,0.2,1.2,0.6,1.5,1.3l2.5,5.1c0.5,1.1,0.2,1.6,0,2.1
		l-5.7,16.7c-0.3,0.9-0.5,1.1-1.3,1.5l-5.3,2.6l1.1,19c0,0.5-0.3,0.9-1,0.7L419.2,86.9z M426.6,58.1c0.2-0.1,0.3-0.3,0.4-0.5l2.1-6
		c0.1-0.3,0.2-0.5,0-0.7l-0.7-1.3c-0.2-0.4-0.4-0.4-0.8-0.6l-6.6-2.3l-3.3,9.7l7,2.4c0.1,0,0.3,0.1,0.5,0L426.6,58.1z"/>
	<path class="st1" d="M432.7,92.1c-0.5-0.2-0.7-0.8-0.5-1.3l20.5-42.2c0.2-0.5,0.8-0.7,1.3-0.5l22.9,11.1c0.4,0.2,0.7,0.8,0.5,1.3
		l-3.6,7.5c-0.2,0.5-0.9,0.7-1.3,0.5l-14.5-7.1l-3.9,8.1l11.1,5.4c0.5,0.2,0.7,0.8,0.5,1.3l-3.6,7.5c-0.2,0.5-0.8,0.7-1.3,0.5
		l-11.1-5.4l-3.9,8.1l14.5,7.1c0.4,0.2,0.7,0.8,0.5,1.3l-3.6,7.5c-0.2,0.5-0.9,0.7-1.3,0.5L432.7,92.1z"/>
	<path class="st1" d="M480.8,119.2c-0.4-0.3-0.5-0.8-0.3-1.4l5.7-17.4l1.5-3.2l-2.3,2.7l-14.3,11.7c-0.5,0.4-0.9,0.5-1.4,0.2
		l-7.3-4.8c-0.4-0.3-0.4-1-0.2-1.4l22.9-41c0.2-0.4,0.9-0.6,1.4-0.3l6.9,4.6c0.5,0.3,0.6,1,0.3,1.4l-11.8,20.8l9.5-7
		c0.4-0.3,1.1-0.4,1.6-0.1l4.7,3.1c0.5,0.3,0.7,1,0.6,1.6l-2.9,11.4l14.7-18.9c0.3-0.4,0.9-0.6,1.4-0.3l6.9,4.6
		c0.4,0.3,0.6,1,0.3,1.4l-29.1,36.9c-0.2,0.3-0.8,0.7-1.4,0.2L480.8,119.2z"/>
	<path class="st1" d="M495.7,130.6c-0.4-0.4-0.5-0.9-0.1-1.4l30-36c0.4-0.4,0.9-0.5,1.4-0.1l6.4,5.3c0.4,0.4,0.5,0.9,0.1,1.4l-30,36
		c-0.4,0.4-0.9,0.5-1.4,0.1L495.7,130.6z"/>
	<path class="st1" d="M521.8,154.6c-0.4-0.4-0.4-1.1-0.2-1.6l10.8-22.5l-16.8,16.4c-0.4,0.3-1,0.3-1.4,0l-5.8-5.9
		c-0.4-0.4-0.3-1,0-1.4l33.5-32.8c0.4-0.4,1-0.4,1.4,0l7.1,7.3c0.3,0.4,0.3,0.8,0,1.4l-12.7,25.4l-0.3,0.8l19.8-19.3
		c0.4-0.4,1-0.3,1.4,0l5.8,6c0.4,0.4,0.4,1,0,1.4l-33.5,32.8c-0.4,0.3-1,0.4-1.4,0L521.8,154.6z"/>
	<path class="st1" d="M550.1,188.1c-1.2-0.2-1.7-0.9-1.7-1l-10.8-14.5c-0.5-0.6-0.6-1.3-0.5-1.9l0.8-5.5c0.2-1.2,0.5-1.3,1-1.7
		l28.8-21.4c0.7-0.5,1.1-0.6,1.9-0.5l5.5,0.8c0.6,0.1,1.1,0.2,1.7,1l10.8,14.5c0.3,0.4,0.6,0.8,0.5,1.9l-0.8,5.5
		c-0.2,1.1-0.6,1.4-1,1.7l-6,4.5c-0.4,0.3-1.1,0.2-1.4-0.3l-4.9-6.6c-0.3-0.4-0.2-1.1,0.2-1.4l1.5-1.1c0.2-0.1,0.2-0.2,0.3-0.5
		l0.2-1.7c0.1-0.2,0-0.4-0.1-0.5l-4-5.4c-0.1-0.1-0.2-0.2-0.5-0.3l-1.6-0.2c-0.3,0-0.5,0-0.7,0.2l-19.8,14.7
		c-0.2,0.1-0.2,0.3-0.3,0.6l-0.2,1.3l4.9,6.6l1.4,0.2c0.3,0,0.4,0,0.5-0.1l4.9-3.7l-2.8-3.7c-0.3-0.4-0.2-1.1,0.2-1.4l6.7-5
		c0.4-0.3,1-0.2,1.4,0.2l8.3,11.1c0.3,0.4,0.3,1.1-0.2,1.4l-17,12.6c-0.5,0.3-1,0.3-1.6,0.2L550.1,188.1z"/>
	<path class="st1" d="M577.7,239.6c-0.8-0.3-1.3-0.9-1.5-1.4l-7.5-16.4c-0.2-0.4-0.4-1.1-0.1-2l1.9-5.2c0.3-0.9,0.9-1.2,1.4-1.4
		l32.6-14.8c0.2-0.1,1-0.5,1.9-0.1l5.2,1.9c1,0.4,1.2,0.8,1.5,1.3l7.5,16.5c0.3,0.6,0.4,1.1,0.1,2l-1.9,5.2
		c-0.3,0.8-0.7,1.2-1.3,1.5l-6.8,3.1c-0.4,0.2-1.1,0-1.3-0.5l-3.4-7.6c-0.2-0.5,0-1.1,0.5-1.3l1.7-0.8c0.2-0.1,0.3-0.2,0.4-0.4
		l0.6-1.6c0.1-0.2,0-0.4,0-0.5l-2.8-6.2c-0.1-0.1-0.2-0.3-0.4-0.4l-1.5-0.5c-0.3-0.1-0.4-0.1-0.7,0l-22.5,10.2
		c-0.2,0.1-0.4,0.2-0.4,0.5l-0.5,1.3l3.4,7.4l1.3,0.5c0.2,0.1,0.4,0,0.5,0l1.9-0.9c0.4-0.2,1.1,0,1.3,0.5l3.4,7.6
		c0.2,0.4,0,1.1-0.5,1.3l-7.2,3.3c-0.3,0.1-0.5,0.2-1.5-0.2L577.7,239.6z"/>
	<path class="st1" d="M588.8,273.3c-0.7-0.4-1-0.8-1.2-1.3l-5.3-17.5c-0.2-0.7-0.2-1.2,0.2-2l2.6-4.9c0.4-0.7,0.8-1.1,1.5-1.3
		L621,236c0.5-0.2,1.4-0.1,2,0.2l4.9,2.6c0.8,0.4,1.1,1,1.3,1.5l5.2,17.3c0.2,0.7,0.4,0.9-0.2,2l-2.6,5c-0.2,0.4-0.7,0.9-1.5,1.2
		l-34.3,10.4c-0.4,0.1-1.2,0.2-1.9-0.1L588.8,273.3z M597.2,264.7c0.3,0.1,0.4,0.1,0.5,0.1l23.8-7.2c0.1,0,0.3-0.1,0.5-0.4l0.7-1.4
		c0.1-0.3,0.1-0.4,0.1-0.5l-2-6.5c-0.1-0.2-0.1-0.2-0.3-0.4l-1.4-0.8c-0.3-0.1-0.5-0.1-0.6,0l-23.8,7.2c-0.1,0-0.2,0.1-0.4,0.3
		l-0.7,1.2l2.3,7.8L597.2,264.7z"/>
	<path class="st1" d="M590.6,284.3c-0.1-0.5,0.2-1,0.6-1.1l9.3-1.8c0.5-0.1,1,0.2,1.2,0.8l1.6,8.1c0.1,0.5-0.2,1-0.8,1.2l-9.3,1.8
		c-0.5,0.1-0.9-0.3-1-0.8L590.6,284.3z"/>
</g>
<g>
	<path class="st1" d="M52.1,515c-0.3-0.5-0.2-1,0.3-1.4l38.6-26.6c0.5-0.3,1-0.2,1.4,0.3l14.4,21c0.3,0.4,0.2,1-0.3,1.4l-6.9,4.7
		c-0.5,0.3-1.1,0.2-1.4-0.3l-9.2-13.3l-7.4,5.1l7,10.2c0.3,0.5,0.2,1-0.3,1.4l-6.9,4.7c-0.5,0.3-1,0.2-1.4-0.3l-7-10.2l-7.4,5.1
		l9.2,13.3c0.3,0.4,0.2,1-0.3,1.4l-6.9,4.7c-0.5,0.3-1.1,0.2-1.4-0.3L52.1,515z"/>
	<path class="st1" d="M95.9,568.6c-0.7,0-1.5-0.5-1.8-0.8l-12.3-13.3c-0.5-0.6-0.7-1.1-0.7-1.9l0.2-5.5c0-0.7,0.5-1.5,0.9-1.9l5-4.6
		c0.4-0.4,1.1-0.3,1.4,0.1l5.6,6.1c0.4,0.4,0.4,1-0.1,1.4l-2.3,2.1l6,6.5c0.1,0.1,0.2,0.1,0.4,0.1l1.6,0.1c0.2,0,0.3,0,0.5-0.2
		l3.9-3.6c0.2-0.2,0.3-0.4,0.3-0.7l0-1.4c0-0.2,0-0.3-0.1-0.4l-8.6-9.2c-0.5-0.6-0.7-1.1-0.7-1.9l0.2-5.5c0-0.6,0.2-1.2,0.8-1.8
		l12.1-11.2c0.5-0.5,1.2-0.7,1.9-0.7l5.5,0.2c1.1,0,1.4,0.4,1.8,0.8l12.3,13.3c0.5,0.5,0.7,1,0.7,1.9l-0.2,5.5
		c0,0.7-0.3,1.4-0.9,1.8l-5.3,4.9c-0.4,0.4-1.1,0.3-1.4-0.1l-5.6-6.1c-0.4-0.4-0.4-1,0.1-1.4l2.6-2.4l-5.9-6.4
		c-0.1-0.2-0.3-0.2-0.5-0.2l-1.6-0.1c-0.3,0-0.4,0-0.6,0.2l-4.1,3.8c-0.2,0.1-0.2,0.3-0.2,0.5l-0.1,1.4l8.9,9.6
		c0.7,0.7,0.7,1,0.7,1.9l-0.2,5.5c-0.1,1.1-0.4,1.4-0.8,1.8l-12.2,11.3c-0.4,0.3-1,0.7-1.9,0.7L95.9,568.6z"/>
	<path class="st1" d="M118,589.8c-0.4-0.3-0.5-0.9-0.2-1.3l23.8-29.3l-6.9-5.6c-0.4-0.4-0.6-1-0.2-1.4l5.2-6.4
		c0.4-0.4,1-0.5,1.5-0.2l21.7,17.7c0.4,0.4,0.5,1,0.2,1.5l-5.2,6.4c-0.4,0.4-1,0.5-1.4,0.1l-6.9-5.6L125.7,595
		c-0.3,0.4-0.9,0.3-1.3,0L118,589.8z"/>
	<path class="st1" d="M162.8,621.3c-0.5-0.3-0.7-1-0.6-1.5l1.6-5.7l-11.9-7.4l-4.4,3.9c-0.4,0.3-1.1,0.5-1.6,0.2l-6.8-4.2
		c-0.8-0.5-0.8-1-0.4-1.4l36.6-32.5c0.5-0.4,0.9-0.6,1.4-0.3l7.1,4.4c0.4,0.3,0.5,0.7,0.3,1.4l-13,47.1c-0.1,0.5-0.8,0.7-1.4,0.3
		L162.8,621.3z M170.5,590.2l-11.2,9.9l7.2,4.5L170.5,590.2z"/>
	<path class="st1" d="M209,642.6c-0.6,0.3-1.1,0.4-2,0l-20.5-8.7c-0.5-0.2-0.7-0.8-0.5-1.3l18.3-43.2c0.2-0.5,0.8-0.7,1.3-0.5
		l20.5,8.7c0.6,0.2,1,0.6,1.4,1.4l2.1,5.1c0.4,1.1,0.2,1.5,0,2l-5.4,12.8c-0.3,0.6-0.8,1.1-1.4,1.4l-3.6,1.5l1.4,3.6
		c0.3,0.6,0.3,1.3,0.2,1.6l-5.2,12.2c-0.3,0.7-0.9,1.2-1.4,1.4L209,642.6z M207.7,630.7c0.2-0.1,0.3-0.2,0.4-0.4l2.2-5.2
		c0.1-0.1,0.1-0.3,0-0.5l-0.6-1.6c-0.1-0.2-0.1-0.3-0.3-0.4l-6.8-2.9l-3.5,8.3l7.3,3.1L207.7,630.7z M215.3,612.9
		c0.2-0.1,0.3-0.2,0.4-0.4l2.2-5.2c0.1-0.2,0.1-0.3,0-0.5l-0.6-1.6c0-0.1-0.1-0.3-0.3-0.4l-6.8-2.9l-3.5,8.2l7.3,3.1L215.3,612.9z"
		/>
	<path class="st1" d="M232,651.4c-0.5-0.1-0.9-0.7-0.8-1.2l11.7-45.6c0.1-0.4,0.7-0.6,1.2-0.5l8,2.1c0.5,0.1,0.9,0.6,0.8,1
		l-9.4,36.6l18.2,4.7c0.5,0.1,0.9,0.7,0.8,1.2l-2.1,8.1c-0.1,0.5-0.7,0.8-1.3,0.7L232,651.4z"/>
	<path class="st1" d="M274.7,660.9c-0.6-0.1-0.9-0.6-0.8-1.1l6.7-46.4c0.1-0.6,0.6-0.9,1.1-0.8l8.2,1.2c0.6,0.1,0.9,0.6,0.8,1.1
		l-6.7,46.4c-0.1,0.6-0.6,0.9-1.1,0.8L274.7,660.9z"/>
	<path class="st1" d="M326.1,664.1c-0.5,0.5-1.4,0.7-1.8,0.7l-18.1-0.5c-0.8,0-1.3-0.2-1.8-0.8l-3.8-4c-0.5-0.5-0.7-1.4-0.7-2
		l0.2-6.8c0-0.6,0.5-1,1.1-0.9l8.3,0.2c0.6,0,1,0.4,0.9,1l-0.1,3.1l8.8,0.3c0.1,0,0.2-0.1,0.4-0.2l1.2-1.1c0.1-0.1,0.2-0.3,0.2-0.5
		l0.2-5.3c0-0.3-0.1-0.5-0.3-0.7l-1-1c-0.1-0.1-0.2-0.2-0.3-0.2l-12.6-0.4c-0.8,0-1.3-0.2-1.8-0.8l-3.8-4c-0.4-0.4-0.7-1-0.7-1.8
		l0.5-16.5c0-0.7,0.3-1.3,0.8-1.8l4-3.8c0.8-0.7,1.3-0.7,1.8-0.7l18.1,0.5c0.7,0,1.2,0.2,1.8,0.8l3.8,4c0.5,0.5,0.7,1.2,0.7,1.9
		l-0.2,7.2c0,0.6-0.5,1-1.1,0.9l-8.3-0.2c-0.6,0-1-0.4-1-1l0.1-3.5l-8.7-0.3c-0.2,0-0.4,0.1-0.5,0.2l-1.2,1.1
		c-0.2,0.2-0.3,0.3-0.3,0.6l-0.2,5.6c0,0.2,0.1,0.4,0.3,0.5l0.9,1l13.1,0.4c1,0,1.2,0.2,1.8,0.8l3.8,4c0.7,0.9,0.7,1.2,0.7,1.8
		l-0.5,16.6c0,0.5-0.2,1.2-0.8,1.8L326.1,664.1z"/>
	<path class="st1" d="M371.4,661.5c-0.5,0.1-1-0.3-1.1-0.9l-2.3-18.2l-10.4,1.3l2.3,18.2c0.1,0.6-0.4,1-0.8,1.1l-8.3,1
		c-0.6,0.1-1-0.3-1.1-0.8l-5.8-46.5c-0.1-0.6,0.3-1,0.9-1.1l8.3-1c0.5-0.1,1,0.3,1.1,0.9l2.3,18.1l10.4-1.3l-2.3-18.1
		c-0.1-0.6,0.4-1,0.9-1.1l8.3-1c0.6-0.1,1,0.3,1.1,0.8l5.8,46.5c0.1,0.6-0.3,1-0.9,1.1L371.4,661.5z"/>
	<path class="st1" d="M400.5,656.1c-0.5,0.2-1.1-0.1-1.2-0.7l-12.6-45.2c-0.2-0.5,0.1-1.1,0.7-1.2l24.5-6.8c0.5-0.1,1.1,0.1,1.2,0.7
		l2.2,8c0.2,0.5-0.2,1.1-0.7,1.2l-15.6,4.3l2.4,8.6l11.9-3.3c0.5-0.2,1.1,0.1,1.2,0.7l2.2,8c0.2,0.5-0.1,1.1-0.7,1.2l-11.9,3.3
		l2.4,8.7l15.6-4.3c0.5-0.1,1.1,0.1,1.2,0.7l2.2,8c0.2,0.5-0.2,1.1-0.7,1.2L400.5,656.1z"/>
	<path class="st1" d="M464.6,632.3c-0.3,0.7-0.7,1.2-1.4,1.4l-20.3,9c-0.5,0.2-1.1,0-1.3-0.5l-19-42.9c-0.2-0.5,0-1.1,0.5-1.3
		l20.3-9c0.5-0.2,1.1-0.4,2,0l5.2,2c0.8,0.3,1.2,0.9,1.4,1.4l14.5,32.8c0.2,0.4,0.4,1,0,2L464.6,632.3z M455.1,625.1
		c0-0.2,0.1-0.4,0-0.5L445,601.8c-0.1-0.1-0.1-0.3-0.4-0.4l-1.6-0.6c-0.2-0.1-0.4-0.1-0.5,0l-6.7,2.9l11.4,25.9l7.3-3.2L455.1,625.1
		z"/>
	<path class="st1" d="M513.1,604.7c-0.4,0.3-1,0.3-1.4-0.2l-12.8-16.3c0,0-0.7-0.7-0.5-1.9l0.7-5.5c0.1-1.2,1.1-1.7,1.1-1.7l10.2-8
		l0.2-1.4c0-0.4-0.1-0.4-0.2-0.6l-4.3-5.5c-0.2-0.2-0.4-0.3-0.5-0.3l-1.6-0.2c-0.3,0-0.4,0-0.6,0.1l-6.8,5.4l2.2,2.8
		c0.3,0.4,0.3,1-0.2,1.4l-6.5,5.1c-0.4,0.3-1,0.3-1.4-0.2l-4.5-5.8c-0.4-0.6-0.6-1.1-0.5-1.9l0.7-5.5c0.1-0.7,0.5-1.3,1-1.7
		l14.2-11.2c0.5-0.4,1.2-0.7,1.9-0.6l5.5,0.7c1.2,0.1,1.7,1,1.7,1l11.2,14.2c0.3,0.4,0.7,0.7,0.6,1.9l-0.7,5.5
		c-0.1,0.9-0.3,1.2-0.9,1.6l-9.9,7.8c-0.1,0.1-0.1,0.2-0.1,0.4l-0.2,1.7c0,0.3,0.1,0.4,0.1,0.5l3.5,4.5l15.6-12.2
		c0.4-0.3,1.1-0.2,1.4,0.2l5.1,6.5c0.3,0.4,0.3,1-0.2,1.4L513.1,604.7z"/>
	<path class="st1" d="M568.3,553.2c0,0.9-0.3,1.3-0.7,1.8l-12.5,13.4c-0.2,0.2-0.7,0.7-1.6,0.7l-5.5,0.2c-0.8,0-1.3-0.2-2-0.8
		l-26.2-24.4c-0.5-0.4-0.8-1-0.8-1.8l-0.2-5.5c0-0.6,0.2-1.4,0.7-1.9l12.3-13.3c0.4-0.4,0.7-0.7,1.8-0.8l5.5-0.2
		c0.7,0,1.4,0.2,1.9,0.7l26.3,24.4c0.5,0.5,0.7,1.1,0.8,1.8L568.3,553.2z M556.6,550.3c0-0.2-0.1-0.3-0.3-0.5l-18.2-16.9
		c-0.1-0.1-0.2-0.2-0.5-0.2l-1.7,0.1c-0.2,0.1-0.4,0.1-0.5,0.2l-4.6,5c-0.1,0.1-0.2,0.3-0.2,0.5l0.1,1.6c0.1,0.3,0,0.4,0.3,0.6
		l18,16.7c0.2,0.2,0.4,0.2,0.7,0.3h1.3l5.6-6L556.6,550.3z"/>
	<path class="st1" d="M583.7,535c-0.3,0.5-0.9,0.5-1.4,0.2L552,513l-2.3,3.2c-0.3,0.4-0.9,0.4-1.4-0.3l-4.6-7.4
		c-0.3-0.6-0.4-1-0.2-1.3l5.6-7.6c0.3-0.4,1-0.6,1.4-0.3l37.8,27.7c0.5,0.3,0.5,1,0.2,1.4L583.7,535z"/>
	<path class="st1" d="M610.6,491.3c0.2,0.7,0.1,1.3-0.1,1.6l-9.1,16.1c-0.2,0.3-0.6,0.6-1.2,0.7l-5.4,1.5c-0.8,0.2-1.4,0-1.9-0.3
		l-11.6-6.6c-0.3-0.2-0.6-0.7-0.8-1.2l-1.1-3.8l-3.8,1.1c-1,0.3-1.3,0.1-1.9-0.3l-12.2-6.9c-0.7-0.4-1-0.9-1.2-1.5l-1.4-5.4
		c-0.2-0.9-0.1-1.3,0.3-1.9l8.4-14.9c0.3-0.6,0.6-1.3,1.7-1.7l5.3-1.5c1-0.3,1.7,0.2,1.9,0.3l12.2,6.9c0.7,0.4,1,0.7,1.2,1.5
		l1.1,3.8l3.8-1.1c0.6-0.2,1.1-0.2,1.4,0l11.6,6.6c0.7,0.4,1.1,0.9,1.2,1.5L610.6,491.3z M581.8,481.7c-0.1-0.3-0.1-0.3-0.3-0.4
		l-5-2.8c-0.1-0.1-0.3-0.2-0.5-0.1l-1.5,0.4c-0.3,0.1-0.4,0.2-0.5,0.3l-3.1,5.5c-0.1,0.1-0.1,0.3,0,0.6l0.4,1.5
		c0.1,0.2,0.2,0.4,0.3,0.4l5,2.8c0.2,0.1,0.2,0.1,0.5,0.1l1.3-0.4l3.7-6.6L581.8,481.7z M598.6,491.2c-0.1-0.3-0.1-0.3-0.3-0.4
		l-4.9-2.8c-0.2-0.1-0.4-0.1-0.6-0.1l-1.5,0.4c-0.3,0.1-0.4,0.2-0.5,0.3l-3.1,5.4c-0.1,0.1-0.1,0.3,0,0.6l0.4,1.5
		c0.1,0.2,0.1,0.3,0.4,0.5l4.9,2.8c0.2,0.1,0.2,0.1,0.5,0.1l1.3-0.4l3.7-6.6L598.6,491.2z"/>
</g>
<g>
	<circle class="st1" cx="38.7" cy="341.8" r="14.6"/>
</g>
<g>
	<circle class="st1" cx="610.7" cy="341.8" r="14.6"/>
</g>
</svg>
