<?xml version="1.0" encoding="utf-8"?>
<!-- Generator: Adobe Illustrator 23.0.1, SVG Export Plug-In . SVG Version: 6.00 Build 0)  -->
<svg version="1.1" id="Layer_1" xmlns="http://www.w3.org/2000/svg" xmlns:xlink="http://www.w3.org/1999/xlink" x="0px" y="0px"
	 viewBox="0 0 306.1 128.8" style="enable-background:new 0 0 306.1 128.8;" xml:space="preserve">
<style type="text/css">
	.st0{fill:#333333;}
</style>
<g>
	<path class="st0" d="M153.3,67C153.3,67.4,153.2,66.6,153.3,67"/>
	<path class="st0" d="M250.4,66.7c0,5-1,24.3-1,26.3c0,0.9-1.1,1.6-2.4,1.6c-1.3,0-2.4-0.6-2.4-1.5c0-0.3-0.1-0.8-0.1-1.5
		c0,0,0,0,0,0c-0.2-0.1-1.8-0.4-1.8,0v0c0,0.4,0,0.8,0,1.1c0,4.5-0.5,5.2-8.4,5c-0.3,0-0.4-1.8-0.9-1.8c-0.4,0-0.6,0.9-0.7,1.8
		c-0.1,0.7-0.3,1.3-0.6,1.4c-0.4,0-0.7-0.7-0.9-1.4c-0.3-0.7-0.5-1.5-0.9-1.4c-0.4,0-0.5,0.7-0.6,1.4c-0.1,0.8-0.3,1.7-0.7,1.8
		c-0.5,0-0.8-1-1.1-1.8c-0.2-0.6-0.5-1.1-0.8-1c-0.3,0-0.4,0.5-0.6,1c-0.2,0.9-0.3,2.1-0.8,2.1c-0.5,0-0.8-1.4-1.2-2.2
		c-0.2-0.4-0.4-0.7-0.6-0.7c-0.2,0-0.4,0.3-0.5,0.6c-0.3,0.9-0.3,2.5-0.9,2.5c-0.6,0.1-0.9-1.9-1.4-2.6c-0.1-0.2-0.3-0.3-0.4-0.3
		c-0.1,0-0.2,0.1-0.3,0.3c-0.4,0.7-0.4,2.8-1,2.9c-0.8,0.1-1-2.9-1.8-2.9c-0.8,0.1-0.6,3.1-1.4,3.1c-0.8,0.1-1-2.9-1.8-2.9
		c-0.8,0.1-0.6,3.1-1.4,3.1c-0.8,0.1-1-2.9-1.8-2.9c-0.8,0.1-0.6,3.1-1.4,3.1c-0.8,0.1-1-3-1.8-2.9c-0.8,0.1-0.6,3.1-1.4,3.1
		c-0.8,0-1-3-1.8-2.9c-0.8,0.1-0.6,3.1-1.4,3.1c-0.8,0-1-3-1.8-2.9c-0.8,0-0.6,3-1.4,3.1c-0.8,0-1-3-1.8-2.9c-0.8,0-0.6,3-1.4,3.1
		c-0.8,0-0.9-3-1.7-2.9c-0.8,0-0.7,3-1.5,3.1c-0.8,0-0.9-3-1.7-2.9c-0.8,0-0.7,3-1.5,3.1c-0.8,0-0.9-3-1.7-2.9c-0.8,0-0.7,3-1.5,3.1
		c-0.8,0-0.9-3-1.7-2.9c-0.8,0-0.7,3-1.5,3.1c-0.8,0-0.9-3-1.7-3c-0.8,0-0.7,3-1.5,3.1c-0.8,0-0.9-3-1.7-3c-0.8,0-0.7,3-1.5,3.1
		c-0.8,0-0.9-3-1.7-3c-0.8,0-0.7,3-1.5,3.1c-0.8,0-0.9-3-1.7-3c-0.8,0-0.7,3-1.5,3c-0.8,0-0.9-3-1.7-3c-0.8,0-0.7,3-1.5,3
		c-0.8,0-0.9-3-1.6-3c-0.8,0-0.8,3-1.6,3c-0.8,0-0.8-3-1.6-3c-0.8,0-0.8,3-1.6,3c-0.8,0-0.8-3-1.6-3c-0.8,0-0.8,3-1.6,3
		c-0.8,0-0.8-3-1.6-3c-0.8,0-0.8,3-1.6,3c-0.8,0-0.9-3-1.7-3c-0.8,0-0.9,3-1.8,3c-0.8,0-0.8-3-1.6-3c-0.8,0-0.8,3-1.6,3
		c-0.8,0-0.8-3-1.6-3c-0.8,0-0.8,3-1.6,3c-0.8,0-0.8-3-1.6-3c-0.8,0-0.8,3-1.6,3c-0.8,0-0.8-3-1.6-3c-0.8,0-0.8,3-1.6,3
		c-0.8,0-0.7-3-1.5-3c-0.8,0-0.9,3-1.7,3c-0.8,0-0.7-3-1.5-3c-0.8,0-0.9,3-1.7,3c-0.8,0-0.7-3-1.5-3c-0.8,0-0.9,3-1.7,3
		c-0.8,0-0.7-3-1.5-3.1c-0.8,0-0.9,3-1.7,3c-0.8,0-0.7-3-1.5-3.1c-0.8,0-0.9,3-1.7,3c-0.8,0-0.7-3-1.5-3.1c-0.8,0-0.9,3-1.7,2.9
		c-0.8,0-0.7-3-1.5-3.1c-0.8,0-0.9,3-1.7,2.9c-0.8,0-0.7-3-1.5-3.1c-0.8,0-0.9,3-1.7,2.9c-0.8,0-0.7-3-1.5-3.1c-0.8,0-0.9,3-1.7,2.9
		c-0.8,0-0.6-3-1.4-3.1c-0.8,0-1,3-1.8,2.9c-0.8,0-0.6-3-1.4-3.1c-0.8,0-1,3-1.8,2.9c-0.8,0-0.6-3.1-1.4-3.1c-0.8,0-1,3-1.8,2.9
		c-0.8-0.1-0.6-3.1-1.4-3.1c-0.8-0.1-1,3-1.8,2.9c-0.8-0.1-0.6-3.1-1.4-3.1c-0.8-0.1-1,2.9-1.8,2.9c-0.8-0.1-0.6-3.1-1.4-3.1
		c-0.8-0.1-1,2.9-1.8,2.9c-0.8-0.1-0.6-3.1-1.4-3.1c-0.8-0.1-1,2.9-1.8,2.9c-0.8-0.1-0.6-3.1-1.4-3.1c-0.8-0.1-1,2.9-1.8,2.9
		c-0.8-0.1-0.6-3.1-1.4-3.1c-0.8-0.1-1,2.9-1.8,2.9c-0.8-0.1-0.5-3.1-1.3-3.1c-0.8-0.1-1.1,2.9-1.9,2.9c-0.8-0.1-0.5-3.1-1.3-3.1
		c-0.8-0.1-1.1,2.9-1.9,2.9c-0.8-0.1-0.5-3.1-1.3-3.1c-0.8-0.1-1.1,2-1.9,2c-8.5,0.2-8.1-0.8-8.1-6.3c0,0,0,0,0,0c0,0,0,0,0-0.1
		c-0.2-0.3-1.4-0.1-1.7,0c0,0.7,0,1.2,0,1.4c0,0.9-1.1,1.6-2.4,1.6C58,94.7,57,94,57,93.2c0-2.6-0.8-19.6-0.9-25.6
		c0-3.2,0.7-6.7,3.3-6.7c1.8,0,3.3,2.7,3.3,5.9c0,2.5-0.2,8.6-0.5,14.3c0,0.7,0,1.4-0.1,2l182.3,0.1c-0.3-6.3-0.5-13.6-0.5-16.2
		c0-3.2,1.4-6.2,3.3-6.2C248.9,60.8,250.4,63.5,250.4,66.7"/>
	<path class="st0" d="M6.6,43.5c-0.4,0-0.8-0.2-0.8-0.6V10c0-0.3,0.4-0.6,0.8-0.6c2.4-0.1,3.6-0.2,5.9-0.4c0.4,0,0.7,0.2,0.7,0.5
		v26.4c4.5-0.3,9-0.5,13.5-0.8c0.4,0,0.8,0.3,0.8,0.6v5.8c0,0.4-0.4,0.7-0.8,0.7C20,42.7,13.3,43.1,6.6,43.5"/>
	<path class="st0" d="M53.5,40.5c-0.4,0.4-0.8,0.6-1.2,0.6c-4.4,0.2-8.8,0.4-13.1,0.6c-0.5,0-0.9-0.1-1.3-0.5
		c-1.1-1-1.7-1.6-2.8-2.6c-0.4-0.4-0.6-0.8-0.6-1.2v-25c0-0.4,0.2-0.9,0.6-1.3c1.1-1.2,1.7-1.7,2.8-2.9c0.5-0.5,0.9-0.6,1.3-0.6
		c4.3-0.2,8.7-0.4,13-0.6c0.6,0,0.7-0.1,1.3,0.5c1.1,1,1.7,1.6,2.9,2.6c0.3,0.2,0.5,0.6,0.5,1.3v25c0,0.3-0.1,0.9-0.5,1.3
		C55.2,38.8,54.7,39.4,53.5,40.5 M49.3,33.4c0.2-0.2,0.2-0.3,0.2-0.3V15.6c0-0.1,0-0.2-0.2-0.4c-0.3-0.3-0.5-0.4-0.8-0.7
		c-0.2-0.1-0.3-0.1-0.4-0.1c-2,0.1-2.9,0.1-4.9,0.2c-0.2,0-0.2,0.1-0.4,0.2c-0.3,0.3-0.5,0.5-0.9,0.8c-0.2,0.2-0.2,0.3-0.2,0.4v17.4
		c0,0.1,0.1,0.2,0.2,0.3l0.7,0.7c2.3-0.1,3.5-0.2,5.8-0.3C48.9,33.8,49.1,33.7,49.3,33.4"/>
	<path class="st0" d="M80.1,40.1c-0.4,0-0.8-0.3-0.9-0.7c-2-5.4-4.1-10.8-6.1-16.2v16.4c0,0.3-0.4,0.7-0.7,0.7
		c-2.4,0.1-3.6,0.1-6,0.2c-0.4,0-0.7-0.3-0.7-0.7V7.1c0-0.4,0.3-0.7,0.7-0.7c2.9-0.1,4.4-0.2,7.4-0.3c0.4,0,0.6,0.2,0.8,0.7
		c2.2,6.2,4.4,12.4,6.6,18.6c0.1,0.2,0.2,0.3,0.3,0.5V6.6c0-0.4,0.4-0.7,0.7-0.7c2.4-0.1,3.6-0.1,6-0.2c0.4,0,0.7,0.3,0.7,0.7v32.7
		c0,0.3-0.3,0.7-0.7,0.7C84.9,39.9,83.3,40,80.1,40.1"/>
	<path class="st0" d="M116.6,38.7c-0.6,0.6-1.3,0.6-1.3,0.6c-4.3,0.1-8.7,0.2-13,0.2c-0.6,0-1-0.2-1.3-0.5c-1.1-1.1-1.7-1.6-2.8-2.7
		c-0.6-0.6-0.6-0.8-0.6-1.3V10c0-0.6,0.2-0.9,0.6-1.3c1.1-1.1,1.7-1.7,2.8-2.8c0.3-0.3,0.6-0.6,1.3-0.6c4.3-0.1,8.7-0.2,13-0.2
		c0.4,0,0.7,0,1.3,0.5c1.1,1.1,1.7,1.6,2.8,2.7c0.6,0.6,0.6,0.9,0.6,1.3v5.2c0,0.3-0.4,0.7-0.8,0.7c-2.4,0-3.6,0.1-5.9,0.1
		c-0.4,0-0.7-0.3-0.7-0.7v-1.3c0-0.1,0-0.2-0.2-0.3c-0.3-0.3-0.5-0.5-0.9-0.8c-0.1-0.1-0.3-0.1-0.4-0.1c-2,0-2.9,0.1-4.9,0.1
		c-0.1,0-0.2,0-0.4,0.2c-0.3,0.3-0.5,0.5-0.8,0.8c-0.2,0.2-0.2,0.3-0.2,0.4v17.3c0,0.1,0.1,0.2,0.2,0.4c0.3,0.3,0.4,0.4,0.7,0.7
		c2.4,0,3.5-0.1,5.9-0.1c0.3-0.3,0.4-0.4,0.7-0.7c0.1-0.1,0.2-0.2,0.2-0.3v-4.3c-1.3,0-2,0-3.3,0.1c-0.4,0-0.7-0.3-0.7-0.7v-5.8
		c0-0.4,0.3-0.7,0.7-0.7c4-0.1,6-0.1,10-0.2c0.4,0,0.8,0.3,0.8,0.7v14.8c0,0.4-0.3,0.7-0.6,1C118.3,37,117.7,37.6,116.6,38.7"/>
	<path class="st0" d="M146.5,38.9c-0.4,0-0.7-0.2-0.7-0.6V12c-2.6,0-3.8,0-6.4,0c-0.4,0-0.8-0.3-0.8-0.7V5.6c0-0.4,0.4-0.7,0.8-0.7
		c6.7,0,13.4-0.1,20.1,0c0.4,0,0.8,0.3,0.8,0.7v5.8c0,0.4-0.4,0.7-0.8,0.7c-2.6,0-3.8,0-6.4,0v26.3c0,0.3-0.4,0.6-0.7,0.6
		C150.1,38.9,148.9,38.9,146.5,38.9"/>
	<path class="st0" d="M168.3,39c-0.4,0-0.7-0.3-0.7-0.7V5.5c0-0.4,0.3-0.7,0.7-0.7c2.4,0,3.6,0,6,0c0.4,0,0.7,0.3,0.7,0.7v32.7
		c0,0.4-0.3,0.7-0.7,0.7C171.9,39,170.7,39,168.3,39"/>
	<path class="st0" d="M205.4,39.5c-0.4,0-0.8-0.3-0.8-0.7l-0.2-12.4c-1.3,4.1-2.6,8.2-3.9,12.3c-0.1,0.3-0.5,0.7-0.9,0.7
		c-1.6,0-2.4,0-4-0.1c-0.4,0-0.9-0.3-1-0.7c-1.3-4.2-2.6-8.3-3.8-12.5c-0.1,4.1-0.2,8.3-0.3,12.4c0,0.4-0.3,0.7-0.7,0.7
		c-2.4,0-3.6-0.1-6-0.1c-0.4,0-0.7-0.3-0.7-0.7c0.5-10.9,0.9-21.8,1.4-32.7c0-0.3,0.2-0.7,0.6-0.7c2.6,0,3.8,0.1,6.4,0.1
		c0.4,0,0.7,0.3,0.8,0.6c1.5,6.3,3,12.7,4.5,19c0.2,1.6,0.3,2.5,0.6,4.1c0.2-1.6,0.2-2.5,0.4-4.1c1.8-6.3,3.5-12.5,5.3-18.8
		c0.1-0.4,0.4-0.6,0.8-0.6c2.6,0.1,3.8,0.1,6.4,0.1c0.4,0,0.6,0.4,0.6,0.7c0.4,10.9,0.9,21.9,1.3,32.8c0,0.4-0.3,0.7-0.7,0.7
		C209,39.6,207.8,39.6,205.4,39.5"/>
	<path class="st0" d="M238.3,39.9c-0.4,0.3-0.7,0.5-1.3,0.5c-5.3-0.2-10.7-0.4-16-0.5c-0.4,0-0.7-0.3-0.7-0.7V6.5
		c0-0.4,0.3-0.7,0.7-0.7c5.3,0.2,10.7,0.3,16,0.5c0.5,0,0.9,0.1,1.3,0.6c1.1,1.1,1.7,1.7,2.8,2.8c0.6,0.6,0.6,0.9,0.6,1.3v9.7
		c0,0.5-0.2,0.9-0.6,1.3c-0.8,0.8-1.2,1.1-2,1.9c0.8,0.8,1.2,1.2,2,2c0.4,0.4,0.6,0.8,0.6,1v9.2c0,0.5-0.3,1-0.6,1.3
		C240,38.4,239.4,38.9,238.3,39.9 M234.1,19c0.1-0.1,0.2-0.2,0.2-0.3v-3.9c0-0.1,0-0.2-0.2-0.3c-0.3-0.3-0.5-0.5-0.9-0.9
		c-0.1-0.1-0.2-0.2-0.3-0.2c-2.1-0.1-3.2-0.1-5.3-0.2v6.3c2.3,0.1,3.4,0.1,5.7,0.2C233.7,19.4,233.8,19.2,234.1,19 M234.1,32.5
		c0.1-0.1,0.2-0.2,0.2-0.3v-4c0-0.1,0-0.2-0.2-0.3c-0.3-0.3-0.5-0.5-0.9-0.9c-0.1-0.1-0.2-0.2-0.3-0.2c-2.1-0.1-3.2-0.1-5.3-0.2v6.3
		c2.3,0.1,3.4,0.1,5.7,0.2C233.7,32.9,233.8,32.7,234.1,32.5"/>
	<path class="st0" d="M251,41c-0.4,0-0.7-0.3-0.7-0.7V7.5c0-0.4,0.3-0.7,0.7-0.7c6.1,0.3,12.2,0.5,18.3,0.8c0.4,0,0.7,0.3,0.7,0.7
		v5.8c0,0.4-0.4,0.7-0.7,0.6c-4.6-0.2-7-0.3-11.6-0.5v6.3c3.6,0.2,5.3,0.2,8.9,0.4c0.4,0,0.7,0.3,0.7,0.7v5.8c0,0.4-0.3,0.7-0.7,0.7
		c-3.6-0.2-5.3-0.3-8.9-0.4v6.3c4.7,0.2,7,0.3,11.6,0.5c0.4,0,0.7,0.3,0.7,0.7v5.8c0,0.4-0.4,0.7-0.7,0.6
		C263.2,41.5,257.1,41.2,251,41"/>
	<path class="st0" d="M293.2,43.1c-0.4,0-0.8-0.4-0.9-0.7c-1.6-4.1-3.3-8.1-4.9-12.2c-0.9-0.1-1.4-0.1-2.3-0.1V42
		c0,0.3-0.3,0.7-0.7,0.6c-2.4-0.1-3.6-0.2-6-0.3c-0.4,0-0.7-0.4-0.7-0.7V8.8c0-0.4,0.4-0.7,0.7-0.6c5.3,0.3,10.7,0.6,16,0.9
		c0.5,0,1,0.2,1.3,0.6c1.1,1.2,1.7,1.8,2.9,3c0.6,0.6,0.5,1,0.5,1.4v12.3c0,0.6-0.1,0.9-0.5,1.2c-1.2,1.1-1.8,1.6-3,2.7
		c1.7,4.2,3.4,8.4,5.1,12.6c0.2,0.4,0,0.7-0.5,0.7C297.4,43.4,296,43.3,293.2,43.1 M291.5,22.3c0.1-0.1,0.2-0.2,0.2-0.4v-4.4
		c0-0.2,0-0.3-0.2-0.5c-0.3-0.3-0.5-0.5-0.8-0.8c-0.2-0.2-0.4-0.2-0.7-0.2c-2-0.1-3-0.2-5-0.3v7.2c2.1,0.1,3.2,0.2,5.3,0.3
		c0.1,0,0.2,0,0.4-0.1C291,22.8,291.2,22.6,291.5,22.3"/>
	<path class="st0" d="M103.7,67.2c-0.1,0.1-0.3,0.2-0.5,0.2h-6c-0.2,0-0.3-0.1-0.3-0.3V54.5c0-0.1,0.1-0.3,0.3-0.3h6
		c0.1,0,0.3,0,0.5,0.2l1.1,1.1c0.2,0.2,0.2,0.3,0.2,0.5v3.4c0,0.2,0,0.3-0.2,0.5l-0.7,0.7l0.7,0.8c0.2,0.2,0.2,0.4,0.2,0.5v3.8
		c0,0.2-0.1,0.4-0.2,0.5L103.7,67.2z M102.7,59.2c0,0,0.1-0.1,0.1-0.1v-2.1c0,0,0-0.1-0.1-0.1l-0.3-0.3h-3.2v3h3
		c0.1,0,0.1,0,0.1-0.1L102.7,59.2z M102.7,64.7c0.1-0.1,0.1-0.1,0.1-0.1v-2.3l-0.1-0.1l-0.3-0.3c-0.1-0.1-0.1-0.1-0.1-0.1h-2.9v3.3
		h2.9c0.1,0,0.1,0,0.1-0.1L102.7,64.7z"/>
	<path class="st0" d="M115.3,67.4c-0.2,0-0.3-0.1-0.3-0.3l-1.9-4.6H111v4.6c0,0.2-0.1,0.3-0.3,0.3H109c-0.2,0-0.3-0.1-0.3-0.3V54.5
		c0-0.1,0.1-0.3,0.3-0.3h6c0,0,0.3,0,0.5,0.2l1.1,1.1c0.2,0.2,0.2,0.5,0.2,0.5v4.8c0,0.2-0.1,0.4-0.2,0.5l-1.1,1.1l1.9,4.7
		c0.1,0.1,0,0.3-0.2,0.3H115.3z M114.4,59.9c0.1-0.1,0.1-0.1,0.1-0.1V57c0,0,0-0.1,0-0.1l-0.3-0.3c-0.1,0-0.1-0.1-0.1-0.1h-3v3.8h3
		c0,0,0.1,0,0.1-0.1L114.4,59.9z"/>
	<path class="st0" d="M120.8,67.4c-0.2,0-0.3-0.1-0.3-0.3V54.5c0-0.2,0.1-0.3,0.3-0.3h6.8c0.1,0,0.3,0.1,0.3,0.3v1.7
		c0,0.1-0.1,0.3-0.3,0.3h-4.8v3.2h3.8c0.1,0,0.3,0.1,0.3,0.3v1.7c0,0.2-0.1,0.3-0.3,0.3h-3.8v3.2h4.8c0.1,0,0.3,0.1,0.3,0.3v1.7
		c0,0.1-0.1,0.3-0.3,0.3H120.8z"/>
	<path class="st0" d="M138.5,67.4c-0.1,0-0.2-0.1-0.3-0.3l-2-5.8l-2,5.8c-0.1,0.2-0.1,0.3-0.3,0.3H132c-0.1,0-0.2-0.1-0.2-0.3
		l-1-12.6c0-0.2,0.1-0.3,0.3-0.3h1.7c0.2,0,0.3,0.1,0.3,0.3l0.5,7.9l1.5-3.9c0.1-0.2,0.2-0.3,0.3-0.3h1.5c0.1,0,0.3,0.1,0.4,0.3
		l1.5,3.9l0.5-7.9c0-0.2,0.1-0.3,0.3-0.3h1.7c0.1,0,0.3,0.1,0.3,0.3l-1,12.6c0,0.1-0.1,0.3-0.2,0.3H138.5z"/>
	<path class="st0" d="M145.3,67.4c-0.2,0-0.3-0.1-0.3-0.3V54.5c0-0.2,0.1-0.3,0.3-0.3h1.7c0.1,0,0.3,0.1,0.3,0.3v12.6
		c0,0.1-0.1,0.3-0.3,0.3H145.3z"/>
	<path class="st0" d="M157.1,67.4c-0.2,0-0.3-0.1-0.4-0.3l-3.3-8.1v8.1c0,0.1-0.1,0.3-0.3,0.3h-1.7c-0.2,0-0.3-0.1-0.3-0.3V54.5
		c0-0.2,0.1-0.3,0.3-0.3h2.3c0.2,0,0.2,0.1,0.3,0.3l2.9,7.5l0.1,0.5v-8.1c0-0.2,0.1-0.3,0.3-0.3h1.7c0.1,0,0.3,0.1,0.3,0.3v12.6
		c0,0.1-0.1,0.3-0.3,0.3H157.1z"/>
	<path class="st0" d="M170.2,67.2c-0.2,0.2-0.2,0.2-0.4,0.2h-5c-0.1,0-0.3,0-0.4-0.2l-1.1-1.1c-0.2-0.2-0.2-0.4-0.2-0.4V56
		c0-0.2,0.1-0.4,0.2-0.5l1.1-1.1c0.1-0.2,0.2-0.2,0.5-0.2h4.8c0.1,0,0.3,0,0.5,0.2l1.1,1.1c0.2,0.2,0.2,0.2,0.2,0.5v2
		c0,0.2-0.1,0.3-0.3,0.3h-1.7c-0.2,0-0.3-0.1-0.3-0.3v-1c0-0.1,0-0.1-0.1-0.1l-0.3-0.3c0,0-0.1-0.1-0.2-0.1h-2.8
		c-0.1,0-0.1,0-0.1,0.1l-0.3,0.3c0,0-0.1,0.1-0.1,0.1v7.7c0,0,0,0.1,0.1,0.1l0.3,0.3h3.2l0.3-0.3c0,0,0.1-0.1,0.1-0.1v-2.2h-1.7
		c-0.2,0-0.3-0.1-0.3-0.3v-1.7c0-0.2,0.1-0.3,0.3-0.3h3.7c0.2,0,0.3,0.1,0.3,0.3v5.2c0,0.1-0.1,0.2-0.2,0.3L170.2,67.2z"/>
	<path class="st0" d="M188.6,67.2c-0.1,0.1-0.2,0.2-0.5,0.2h-4.9c-0.1,0-0.3,0-0.4-0.2l-1.1-1.1c-0.2-0.1-0.2-0.3-0.2-0.4V56
		c0-0.2,0-0.3,0.2-0.5l1.1-1.1c0.1-0.2,0.3-0.2,0.5-0.2h4.8c0.2,0,0.3,0,0.5,0.2l1.1,1.1c0.2,0.2,0.2,0.2,0.2,0.5v2
		c0,0.2-0.1,0.3-0.3,0.3h-1.7c-0.2,0-0.3-0.1-0.3-0.3v-1c0-0.1,0-0.1-0.1-0.1l-0.3-0.3c-0.1,0-0.1-0.1-0.1-0.1h-2.8
		c-0.1,0-0.1,0-0.1,0.1l-0.3,0.3c0,0-0.1,0.1-0.1,0.1v7.7c0,0.1,0,0.2,0.1,0.2l0.3,0.3h3.2l0.3-0.3c0,0,0.1-0.1,0.1-0.1v-1.1
		c0-0.1,0.1-0.3,0.3-0.3h1.7c0.2,0,0.3,0.1,0.3,0.3v2c0,0.2,0,0.3-0.2,0.5L188.6,67.2z"/>
	<path class="st0" d="M200.5,67.2c-0.1,0.2-0.4,0.2-0.6,0.2h-4.8c-0.1,0-0.3,0-0.4-0.2l-1.1-1.1c-0.2-0.2-0.2-0.4-0.2-0.4v-9.7
		c0-0.1,0-0.3,0.2-0.5l1.1-1.1c0.1-0.2,0.3-0.2,0.5-0.2h4.8c0.1,0,0.3,0,0.5,0.2l1.1,1.1c0.1,0.1,0.2,0.3,0.2,0.5v9.6
		c0,0.2-0.1,0.4-0.2,0.5L200.5,67.2z M199.4,64.8c0,0,0.1-0.1,0.1-0.1V57c0,0,0-0.1-0.1-0.1l-0.3-0.3c0,0-0.1-0.1-0.1-0.1h-2.8
		c0,0-0.1,0-0.1,0.1l-0.3,0.3c-0.1,0.1-0.1,0.1-0.1,0.1v7.7c0,0.1,0,0.1,0.1,0.1l0.3,0.3h3.2L199.4,64.8z"/>
	<path class="st0" d="M205.7,67.4c-0.1,0-0.3-0.1-0.3-0.2v-2c0-0.1,0.1-0.3,0.3-0.3h1.7c0.1,0,0.3,0.1,0.3,0.3v2
		c0,0.1-0.1,0.2-0.3,0.2H205.7z"/>
	<path class="st0" d="M126.3,122.6c-0.1,0-0.2-0.1-0.2-0.2c0.5-3.2,0.7-4.8,1.1-8c0-0.1,0.1-0.2,0.2-0.1c1.7,0.2,2.6,0.4,4.4,0.6
		c0.1,0,0.2,0.1,0.1,0.2c-0.1,0.4-0.1,0.7-0.1,1.1c0,0.1-0.1,0.2-0.2,0.1c-1.2-0.1-1.9-0.2-3.1-0.4c-0.1,0.8-0.2,1.2-0.3,2
		c1,0.1,1.5,0.2,2.5,0.3c0.1,0,0.2,0.1,0.2,0.2c-0.1,0.4-0.1,0.7-0.1,1.1c0,0.1-0.1,0.2-0.2,0.1c-1-0.1-1.5-0.2-2.5-0.3
		c-0.1,0.8-0.2,1.2-0.3,2c1.3,0.2,1.9,0.3,3.2,0.4c0.1,0,0.2,0.1,0.2,0.2c-0.1,0.4-0.1,0.7-0.1,1.1c0,0.1-0.1,0.2-0.2,0.1
		C129.1,123,128.1,122.8,126.3,122.6"/>
	<path class="st0" d="M137.7,123.7c-0.1,0.1-0.2,0.1-0.3,0.1c-1.3-0.1-2-0.2-3.3-0.3c-0.2,0-0.2-0.1-0.3-0.2
		c-0.3-0.3-0.4-0.4-0.6-0.7c-0.1-0.1-0.1-0.2-0.1-0.3c0.1-0.5,0.1-0.7,0.1-1.2c0-0.1,0.1-0.2,0.2-0.1c0.5,0,0.7,0.1,1.1,0.1
		c0.1,0,0.2,0.1,0.2,0.2c0,0.3-0.1,0.5-0.1,0.9c0.9,0.1,1.3,0.1,2.2,0.2c0,0,0,0,0.1,0c0.1-0.1,0.1-0.1,0.2-0.2c0,0,0-0.1,0-0.1
		c0-0.6,0.1-0.8,0.1-1.4c0,0,0-0.1,0-0.1c-0.1-0.1-0.1-0.1-0.2-0.2c0,0,0,0-0.1,0c-1-0.1-1.5-0.1-2.6-0.2c0,0-0.2,0-0.3-0.2
		c-0.3-0.3-0.4-0.4-0.6-0.7c-0.1-0.1-0.1-0.2-0.1-0.3c0.1-1.1,0.2-1.6,0.3-2.7c0-0.1,0-0.2,0.2-0.3c0.3-0.2,0.4-0.4,0.7-0.6
		c0.1-0.1,0.1-0.1,0.3-0.1c1.2,0.1,1.9,0.2,3.1,0.3c0.1,0,0.2,0.1,0.3,0.1c0.2,0.3,0.4,0.4,0.6,0.7c0.1,0.2,0.1,0.2,0.1,0.3
		c0,0.5-0.1,0.8-0.1,1.3c0,0.1-0.1,0.2-0.2,0.2c-0.4,0-0.7-0.1-1.1-0.1c-0.1,0-0.2-0.1-0.2-0.2c0-0.4,0-0.6,0.1-0.9
		c-0.9-0.1-1.3-0.1-2.1-0.2c0,0-0.1,0-0.1,0c-0.1,0.1-0.1,0.1-0.2,0.2c0,0,0,0.1,0,0.1c-0.1,0.6-0.1,0.8-0.1,1.4c0,0,0,0.1,0,0.1
		c0.1,0.1,0.1,0.1,0.2,0.2c0,0,0.1,0,0.1,0c1,0.1,1.5,0.1,2.5,0.2c0.1,0,0.2,0.1,0.3,0.1c0.3,0.3,0.4,0.4,0.6,0.7
		c0.1,0.1,0.1,0.2,0.1,0.3c-0.1,1.1-0.1,1.6-0.2,2.7c0,0.1-0.1,0.2-0.2,0.3C138.1,123.3,138,123.5,137.7,123.7"/>
	<path class="st0" d="M142.3,124.1c-0.1,0-0.1-0.1-0.1-0.2c0.2-2.7,0.2-4.1,0.4-6.8c-0.7,0-1-0.1-1.7-0.1c-0.1,0-0.2-0.1-0.2-0.2
		c0-0.4,0-0.7,0.1-1.1c0-0.1,0.1-0.2,0.2-0.2c1.9,0.1,2.9,0.2,4.8,0.3c0.1,0,0.2,0.1,0.2,0.2c0,0.4,0,0.7,0,1.1
		c0,0.1-0.1,0.2-0.2,0.2c-0.7,0-1,0-1.7-0.1c-0.1,2.7-0.2,4.1-0.3,6.8c0,0.1-0.1,0.1-0.1,0.1C143,124.2,142.8,124.2,142.3,124.1"/>
	<path class="st0" d="M146.8,124.3c-0.1,0-0.2-0.1-0.2-0.1c0-0.5,0-0.8,0-1.3c0-0.1,0.1-0.2,0.2-0.2c0.5,0,0.7,0,1.2,0
		c0.1,0,0.2,0.1,0.2,0.2c0,0.5,0,0.8,0,1.3c0,0.1-0.1,0.1-0.2,0.1C147.5,124.4,147.3,124.4,146.8,124.3"/>
	<path class="st0" d="M154.5,124.4c-0.1,0-0.2-0.1-0.2-0.2c0-1.4,0-2.1,0-3.6c0-0.2,0.1-0.3,0.1-0.3c0.3-0.3,0.4-0.4,0.7-0.7
		c0.1-0.1,0.2-0.1,0.3-0.1c1.1,0,1.6,0,2.7-0.1c0.1-0.1,0.1-0.1,0.2-0.2c0,0,0-0.1,0-0.1c0-0.6,0-0.9,0-1.5c0,0,0,0,0-0.1
		c-0.1-0.1-0.1-0.1-0.2-0.2c0,0,0,0-0.1,0c-0.9,0-1.4,0-2.3,0.1c0,0.4,0,0.5,0,0.9c0,0.1-0.1,0.2-0.2,0.2c-0.5,0-0.7,0-1.1,0
		c-0.1,0-0.2-0.1-0.2-0.2c0-0.5,0-0.8,0-1.3c0-0.1,0-0.2,0.1-0.3c0.3-0.3,0.4-0.4,0.7-0.7c0.1-0.1,0.2-0.1,0.3-0.1
		c1.3,0,1.9,0,3.1-0.1c0.1,0,0.2,0,0.3,0.1c0.3,0.3,0.4,0.4,0.7,0.7c0.1,0.1,0.1,0.3,0.1,0.3c0,1.1,0.1,1.7,0.1,2.8
		c0,0,0,0.2-0.1,0.3c-0.3,0.3-0.4,0.4-0.7,0.7c-0.1,0.1-0.3,0.1-0.3,0.1c-1,0-1.5,0-2.6,0.1c0,0,0,0-0.1,0c-0.1,0.1-0.1,0.1-0.2,0.2
		c0,0,0,0,0,0.1c0,0.6,0,1,0,1.6c1.5,0,2.3,0,3.9-0.1c0.1,0,0.2,0.1,0.2,0.2c0,0.4,0,0.7,0,1.1c0,0.1-0.1,0.2-0.2,0.2
		C157.7,124.4,156.6,124.4,154.5,124.4"/>
	<path class="st0" d="M166.9,123.8c-0.1,0.2-0.3,0.2-0.3,0.2c-1.3,0.1-2,0.1-3.3,0.2c-0.2,0-0.3-0.1-0.3-0.1
		c-0.3-0.3-0.4-0.4-0.7-0.6c-0.1-0.1-0.1-0.2-0.2-0.3c-0.1-2.5-0.2-3.7-0.3-6.2c0-0.1,0-0.2,0.1-0.3c0.3-0.3,0.4-0.4,0.6-0.7
		c0.1-0.1,0.2-0.1,0.3-0.1c1.2-0.1,1.9-0.1,3.1-0.2c0.1,0,0.2,0,0.3,0.1c0.3,0.2,0.4,0.4,0.7,0.6c0.1,0.1,0.1,0.2,0.1,0.3
		c0.2,2.5,0.3,3.7,0.5,6.1c0,0.1,0,0.2-0.1,0.3C167.3,123.4,167.2,123.5,166.9,123.8 M166.1,122.4
		C166.1,122.3,166.1,122.3,166.1,122.4c-0.1-2-0.2-3-0.3-5c0,0,0-0.1,0-0.1c-0.1-0.1-0.1-0.1-0.2-0.2c0,0-0.1,0-0.1,0
		c-0.7,0.1-1.1,0.1-1.8,0.1c0,0,0,0-0.1,0c-0.1,0.1-0.1,0.1-0.2,0.2c0,0,0,0,0,0.1c0.1,2,0.2,2.9,0.3,4.9c0,0,0,0.1,0,0.1l0.2,0.2
		c0.8,0,1.3-0.1,2.1-0.1C166,122.5,166,122.4,166.1,122.4"/>
	<path class="st0" d="M170.5,123.6c-0.1,0-0.2-0.1-0.2-0.2c-0.3-2.7-0.4-4.1-0.6-6.8c-0.3,0-0.4,0-0.7,0.1c-0.1,0-0.2-0.1-0.1-0.2
		c0.2-0.4,0.3-0.7,0.5-1.1c0-0.1,0.1-0.2,0.2-0.2c0.5,0,0.8-0.1,1.3-0.1c0.1,0,0.2,0.1,0.2,0.2c0.3,3.2,0.5,4.8,0.8,8
		c0,0.1-0.1,0.2-0.2,0.2C171.2,123.6,171,123.6,170.5,123.6"/>
	<path class="st0" d="M178.7,122.5c-0.1,0.1-0.2,0.2-0.3,0.2c-1.3,0.2-2,0.3-3.3,0.4c-0.1,0-0.2,0-0.3-0.1c-0.3-0.2-0.5-0.4-0.8-0.6
		c-0.1-0.1-0.2-0.2-0.2-0.3c-0.1-0.9-0.2-1.4-0.3-2.3c0-0.1,0-0.1,0.1-0.2c0.1-0.2,0.2-0.3,0.3-0.5c-0.2-0.2-0.2-0.3-0.4-0.4
		c-0.1-0.2-0.2-0.2-0.2-0.3c-0.1-1-0.2-1.4-0.3-2.4c0-0.2,0-0.2,0.1-0.3c0.2-0.3,0.4-0.4,0.6-0.7c0.1-0.1,0.2-0.2,0.3-0.2
		c1.2-0.1,1.8-0.2,3-0.4c0,0,0.2,0,0.3,0.1c0.3,0.2,0.5,0.3,0.8,0.6c0.1,0.1,0.2,0.2,0.2,0.3c0.1,0.9,0.2,1.4,0.3,2.4
		c0,0.1,0,0.2-0.1,0.3c-0.1,0.2-0.2,0.3-0.3,0.5c0.2,0.2,0.3,0.2,0.4,0.4c0.1,0.1,0.2,0.1,0.2,0.3c0.1,0.9,0.2,1.3,0.3,2.2
		c0,0,0,0.2-0.1,0.3C179,122.1,178.9,122.2,178.7,122.5 M177.3,117.7C177.3,117.6,177.3,117.6,177.3,117.7c-0.1-0.6-0.1-0.9-0.2-1.5
		c0,0,0,0,0-0.1c-0.1-0.1-0.1-0.1-0.2-0.2c0,0-0.1,0-0.1,0c-0.7,0.1-1,0.1-1.7,0.2c0,0,0,0-0.1,0c-0.1,0.1-0.1,0.1-0.2,0.2
		c0,0,0,0.1,0,0.1c0.1,0.6,0.1,0.8,0.2,1.4c0,0,0,0.1,0,0.1c0.1,0.1,0.1,0.1,0.2,0.1c0.8-0.1,1.2-0.1,2-0.3
		C177.2,117.8,177.2,117.7,177.3,117.7 M177.8,121.2C177.8,121.1,177.8,121.1,177.8,121.2c0-0.6-0.1-0.9-0.2-1.5c0,0,0-0.1-0.1-0.1
		c-0.1-0.1-0.1-0.1-0.2-0.2c0,0-0.1,0-0.1,0c-0.7,0.1-1,0.1-1.7,0.2c0,0-0.1,0-0.1,0c-0.1,0.1-0.1,0.1-0.2,0.2c0,0,0,0.1,0,0.1
		c0.1,0.5,0.1,0.8,0.2,1.4c0,0,0,0.1,0,0.1c0.1,0.1,0.1,0.1,0.2,0.1c0.8-0.1,1.2-0.1,2-0.3C177.7,121.3,177.7,121.2,177.8,121.2"/>
</g>
</svg>
